<mxfile host="app.diagrams.net" agent="Mozilla/5.0 (Windows NT 10.0; Win64; x64) AppleWebKit/537.36 (KHTML, like Gecko) Chrome/132.0.0.0 Safari/537.36 OPR/117.0.0.0" version="26.0.15">
  <diagram id="C5RBs43oDa-KdzZeNtuy" name="Page-1">
    <mxGraphModel dx="1921" dy="885" grid="1" gridSize="10" guides="1" tooltips="1" connect="1" arrows="1" fold="1" page="1" pageScale="1" pageWidth="827" pageHeight="1169" math="0" shadow="0">
      <root>
        <mxCell id="WIyWlLk6GJQsqaUBKTNV-0" />
        <mxCell id="WIyWlLk6GJQsqaUBKTNV-1" parent="WIyWlLk6GJQsqaUBKTNV-0" />
        <UserObject label="" plantUmlData="{&quot;data&quot;:&quot;@startuml\nclass Customer {\n  id: int\n  contact: string\n\n  +login()\n  +register()\n}\n@enduml\n&quot;,&quot;format&quot;:&quot;svg&quot;}" id="T1-XE717wi-3wMaK3hyC-3">
          <mxCell style="shape=image;noLabel=1;verticalAlign=top;aspect=fixed;imageAspect=0;image=data:image/svg+xml,PHN2ZyB4bWxucz0iaHR0cDovL3d3dy53My5vcmcvMjAwMC9zdmciIHhtbG5zOnhsaW5rPSJodHRwOi8vd3d3LnczLm9yZy8xOTk5L3hsaW5rIiBjb250ZW50U3R5bGVUeXBlPSJ0ZXh0L2NzcyIgZGF0YS1kaWFncmFtLXR5cGU9IkNMQVNTIiBoZWlnaHQ9IjEyOHB4IiBwcmVzZXJ2ZUFzcGVjdFJhdGlvPSJub25lIiBzdHlsZT0id2lkdGg6MTM4cHg7aGVpZ2h0OjEyOHB4O2JhY2tncm91bmQ6I0ZGRkZGRjsiIHZlcnNpb249IjEuMSIgdmlld0JveD0iMCAwIDEzOCAxMjgiIHdpZHRoPSIxMzhweCIgem9vbUFuZFBhbj0ibWFnbmlmeSI+PGRlZnMvPjxnPjwhLS1jbGFzcyBDdXN0b21lci0tPjxnIGNsYXNzPSJlbnRpdHkiIGRhdGEtZW50aXR5PSJDdXN0b21lciIgZGF0YS1zb3VyY2UtbGluZT0iMSIgZGF0YS11aWQ9ImVudDAwMDIiIGlkPSJlbnRpdHlfQ3VzdG9tZXIiPjxyZWN0IGZpbGw9IiNGMUYxRjEiIGhlaWdodD0iMTA3LjkzNzUiIHJ4PSIyLjUiIHJ5PSIyLjUiIHN0eWxlPSJzdHJva2U6IzE4MTgxODtzdHJva2Utd2lkdGg6MC41OyIgd2lkdGg9IjExNyIgeD0iNyIgeT0iNyIvPjxlbGxpcHNlIGN4PSIzNS4wNSIgY3k9IjIzIiBmaWxsPSIjQUREMUIyIiByeD0iMTEiIHJ5PSIxMSIgc3R5bGU9InN0cm9rZTojMTgxODE4O3N0cm9rZS13aWR0aDoxOyIvPjxwYXRoIGQ9Ik0zMi42NzUsMjcuMjUgTDMyLjY3NSwyOSBMMzcuNjEyNSwyOSBMMzcuNjEyNSwyNy4yNSBMMzIuNjc1LDI3LjI1IFogTTMzLjM2MjUsMjcuOTM3NSBRMzMuMzYyNSwyNy45Mzc1IDMzLjM2MjUsMTguNzUgTDMxLjYxMjUsMTguNzUgUTMxLjYxMjUsMTguNzUgMzEuNjEyNSwyNy45Mzc1IEwzMy4zNjI1LDI3LjkzNzUgWiBNMzYuOTI1LDI3LjkzNzUgTDM4LjY3NSwyNy45Mzc1IFEzOC42NzUsMjcuOTM3NSAzOC42NzUsMjUuMTI1IEwzNi45MjUsMjUuMTI1IFEzNi45MjUsMjUuMTI1IDM2LjkyNSwyNy45Mzc1IFogTTM2LjkyNSwxOC43NSBRMzYuOTI1LDE4Ljc1IDM2LjkyNSwyMS41NjI1IEwzOC42NzUsMjEuNTYyNSBRMzguNjc1LDIxLjU2MjUgMzguNjc1LDE4Ljc1IEwzNi45MjUsMTguNzUgWiBNMzIuNjc1LDE5LjQzNzUgTDM3LjYxMjUsMTkuNDM3NSBMMzcuNjEyNSwxNy42ODc1IEwzMi42NzUsMTcuNjg3NSBMMzIuNjc1LDE5LjQzNzUgWiAiIGZpbGw9IiMwMDAwMDAiLz48dGV4dCBmaWxsPSIjMDAwMDAwIiBmb250LWZhbWlseT0ic2Fucy1zZXJpZiIgZm9udC1zaXplPSIxNCIgbGVuZ3RoQWRqdXN0PSJzcGFjaW5nIiB0ZXh0TGVuZ3RoPSI1NiIgeD0iNTEuOTUiIHk9IjI4Ljc0MjIiPkN1c3RvbWVyPC90ZXh0PjxsaW5lIHN0eWxlPSJzdHJva2U6IzE4MTgxODtzdHJva2Utd2lkdGg6MC41OyIgeDE9IjgiIHgyPSIxMjMiIHkxPSIzOSIgeTI9IjM5Ii8+PHRleHQgZmlsbD0iIzAwMDAwMCIgZm9udC1mYW1pbHk9InNhbnMtc2VyaWYiIGZvbnQtc2l6ZT0iMTQiIGxlbmd0aEFkanVzdD0ic3BhY2luZyIgdGV4dExlbmd0aD0iNDkiIHg9IjEzIiB5PSI1Ni4yMzQ0Ij5pZDogaW50PC90ZXh0Pjx0ZXh0IGZpbGw9IiMwMDAwMDAiIGZvbnQtZmFtaWx5PSJzYW5zLXNlcmlmIiBmb250LXNpemU9IjE0IiBsZW5ndGhBZGp1c3Q9InNwYWNpbmciIHRleHRMZW5ndGg9IjEwNSIgeD0iMTMiIHk9IjcxLjIxODgiPmNvbnRhY3Q6IHN0cmluZzwvdGV4dD48bGluZSBzdHlsZT0ic3Ryb2tlOiMxODE4MTg7c3Ryb2tlLXdpZHRoOjAuNTsiIHgxPSI4IiB4Mj0iMTIzIiB5MT0iNzYuOTY4OCIgeTI9Ijc2Ljk2ODgiLz48ZWxsaXBzZSBjeD0iMTgiIGN5PSI4OS45NjA5IiBmaWxsPSIjODRCRTg0IiByeD0iMyIgcnk9IjMiIHN0eWxlPSJzdHJva2U6IzAzODA0ODtzdHJva2Utd2lkdGg6MTsiLz48dGV4dCBmaWxsPSIjMDAwMDAwIiBmb250LWZhbWlseT0ic2Fucy1zZXJpZiIgZm9udC1zaXplPSIxNCIgbGVuZ3RoQWRqdXN0PSJzcGFjaW5nIiB0ZXh0TGVuZ3RoPSI0OSIgeD0iMjciIHk9Ijk0LjIwMzEiPmxvZ2luKCk8L3RleHQ+PGVsbGlwc2UgY3g9IjE4IiBjeT0iMTA0Ljk0NTMiIGZpbGw9IiM4NEJFODQiIHJ4PSIzIiByeT0iMyIgc3R5bGU9InN0cm9rZTojMDM4MDQ4O3N0cm9rZS13aWR0aDoxOyIvPjx0ZXh0IGZpbGw9IiMwMDAwMDAiIGZvbnQtZmFtaWx5PSJzYW5zLXNlcmlmIiBmb250LXNpemU9IjE0IiBsZW5ndGhBZGp1c3Q9InNwYWNpbmciIHRleHRMZW5ndGg9IjcwIiB4PSIyNyIgeT0iMTA5LjE4NzUiPnJlZ2lzdGVyKCk8L3RleHQ+PC9nPjwhLS1TUkM9W0l5djlCMnZNUzJ1akJpZEZKSXJJZ0VQSUtDWENpTEI4cDJpMWlmQnB5cWVJYXFraTU4ZkJZWkJwcWhjMEdqZXYtVWNQVUhnUTg2UEhRZGZjU0tiZzRQMU4ybTAwXS0tPjwvZz48L3N2Zz4=;" vertex="1" parent="WIyWlLk6GJQsqaUBKTNV-1">
            <mxGeometry x="236" y="132.21" width="140" height="129.86" as="geometry" />
          </mxCell>
        </UserObject>
        <UserObject label="" plantUmlData="{&quot;data&quot;:&quot;@startuml\n\nclass Order{\n  id: string\n  product_id: string\n  changes: array [ { ingredient_id, code_change } ]\n}\n\n@enduml\n&quot;,&quot;format&quot;:&quot;svg&quot;}" id="T1-XE717wi-3wMaK3hyC-4">
          <mxCell style="shape=image;noLabel=1;verticalAlign=top;aspect=fixed;imageAspect=0;image=data:image/svg+xml,PHN2ZyB4bWxucz0iaHR0cDovL3d3dy53My5vcmcvMjAwMC9zdmciIHhtbG5zOnhsaW5rPSJodHRwOi8vd3d3LnczLm9yZy8xOTk5L3hsaW5rIiBjb250ZW50U3R5bGVUeXBlPSJ0ZXh0L2NzcyIgZGF0YS1kaWFncmFtLXR5cGU9IkNMQVNTIiBoZWlnaHQ9IjExM3B4IiBwcmVzZXJ2ZUFzcGVjdFJhdGlvPSJub25lIiBzdHlsZT0id2lkdGg6Mzc2cHg7aGVpZ2h0OjExM3B4O2JhY2tncm91bmQ6I0ZGRkZGRjsiIHZlcnNpb249IjEuMSIgdmlld0JveD0iMCAwIDM3NiAxMTMiIHdpZHRoPSIzNzZweCIgem9vbUFuZFBhbj0ibWFnbmlmeSI+PGRlZnMvPjxnPjwhLS1jbGFzcyBPcmRlci0tPjxnIGNsYXNzPSJlbnRpdHkiIGRhdGEtZW50aXR5PSJPcmRlciIgZGF0YS1zb3VyY2UtbGluZT0iMSIgZGF0YS11aWQ9ImVudDAwMDIiIGlkPSJlbnRpdHlfT3JkZXIiPjxyZWN0IGZpbGw9IiNGMUYxRjEiIGhlaWdodD0iOTIuOTUzMSIgcng9IjIuNSIgcnk9IjIuNSIgc3R5bGU9InN0cm9rZTojMTgxODE4O3N0cm9rZS13aWR0aDowLjU7IiB3aWR0aD0iMzU1IiB4PSI3IiB5PSI3Ii8+PGVsbGlwc2UgY3g9IjE2Mi43NSIgY3k9IjIzIiBmaWxsPSIjQUREMUIyIiByeD0iMTEiIHJ5PSIxMSIgc3R5bGU9InN0cm9rZTojMTgxODE4O3N0cm9rZS13aWR0aDoxOyIvPjxwYXRoIGQ9Ik0xNjAuMzc1LDI3LjI1IEwxNjAuMzc1LDI5IEwxNjUuMzEyNSwyOSBMMTY1LjMxMjUsMjcuMjUgTDE2MC4zNzUsMjcuMjUgWiBNMTYxLjA2MjUsMjcuOTM3NSBRMTYxLjA2MjUsMjcuOTM3NSAxNjEuMDYyNSwxOC43NSBMMTU5LjMxMjUsMTguNzUgUTE1OS4zMTI1LDE4Ljc1IDE1OS4zMTI1LDI3LjkzNzUgTDE2MS4wNjI1LDI3LjkzNzUgWiBNMTY0LjYyNSwyNy45Mzc1IEwxNjYuMzc1LDI3LjkzNzUgUTE2Ni4zNzUsMjcuOTM3NSAxNjYuMzc1LDI1LjEyNSBMMTY0LjYyNSwyNS4xMjUgUTE2NC42MjUsMjUuMTI1IDE2NC42MjUsMjcuOTM3NSBaIE0xNjQuNjI1LDE4Ljc1IFExNjQuNjI1LDE4Ljc1IDE2NC42MjUsMjEuNTYyNSBMMTY2LjM3NSwyMS41NjI1IFExNjYuMzc1LDIxLjU2MjUgMTY2LjM3NSwxOC43NSBMMTY0LjYyNSwxOC43NSBaIE0xNjAuMzc1LDE5LjQzNzUgTDE2NS4zMTI1LDE5LjQzNzUgTDE2NS4zMTI1LDE3LjY4NzUgTDE2MC4zNzUsMTcuNjg3NSBMMTYwLjM3NSwxOS40Mzc1IFogIiBmaWxsPSIjMDAwMDAwIi8+PHRleHQgZmlsbD0iIzAwMDAwMCIgZm9udC1mYW1pbHk9InNhbnMtc2VyaWYiIGZvbnQtc2l6ZT0iMTQiIGxlbmd0aEFkanVzdD0ic3BhY2luZyIgdGV4dExlbmd0aD0iMzUiIHg9IjE4My4yNSIgeT0iMjguNzQyMiI+T3JkZXI8L3RleHQ+PGxpbmUgc3R5bGU9InN0cm9rZTojMTgxODE4O3N0cm9rZS13aWR0aDowLjU7IiB4MT0iOCIgeDI9IjM2MSIgeTE9IjM5IiB5Mj0iMzkiLz48dGV4dCBmaWxsPSIjMDAwMDAwIiBmb250LWZhbWlseT0ic2Fucy1zZXJpZiIgZm9udC1zaXplPSIxNCIgbGVuZ3RoQWRqdXN0PSJzcGFjaW5nIiB0ZXh0TGVuZ3RoPSI3MCIgeD0iMTMiIHk9IjU2LjIzNDQiPmlkOiBzdHJpbmc8L3RleHQ+PHRleHQgZmlsbD0iIzAwMDAwMCIgZm9udC1mYW1pbHk9InNhbnMtc2VyaWYiIGZvbnQtc2l6ZT0iMTQiIGxlbmd0aEFkanVzdD0ic3BhY2luZyIgdGV4dExlbmd0aD0iMTI2IiB4PSIxMyIgeT0iNzEuMjE4OCI+cHJvZHVjdF9pZDogc3RyaW5nPC90ZXh0Pjx0ZXh0IGZpbGw9IiMwMDAwMDAiIGZvbnQtZmFtaWx5PSJzYW5zLXNlcmlmIiBmb250LXNpemU9IjE0IiBsZW5ndGhBZGp1c3Q9InNwYWNpbmciIHRleHRMZW5ndGg9IjM0MyIgeD0iMTMiIHk9Ijg2LjIwMzEiPmNoYW5nZXM6IGFycmF5IFsgeyBpbmdyZWRpZW50X2lkLCBjb2RlX2NoYW5nZSB9IF08L3RleHQ+PGxpbmUgc3R5bGU9InN0cm9rZTojMTgxODE4O3N0cm9rZS13aWR0aDowLjU7IiB4MT0iOCIgeDI9IjM2MSIgeTE9IjkxLjk1MzEiIHkyPSI5MS45NTMxIi8+PC9nPjwhLS1TUkM9W0l5djlCMnZNeTJ6QUlJc2d2YjlHbzRvbktZV2tBU2hDSW1UbzJlaG9LcWdKSS05SDE5Q3A0bEZJS3VrajUxQUJZWDhoNVE4TGdYTTA0YU1mQVBjZlVJMmJFV2g5LUljZnlIMWIyaEtBaUxvcjAwMDBdLS0+PC9nPjwvc3ZnPg==;" vertex="1" parent="WIyWlLk6GJQsqaUBKTNV-1">
            <mxGeometry x="353" y="298.43" width="376" height="113" as="geometry" />
          </mxCell>
        </UserObject>
        <UserObject label="" plantUmlData="{&quot;data&quot;:&quot;@startuml\n\nclass Order_status_history {\n  order_id: string\n  status_code: string\n  time_set: time\n}\n\n@enduml\n&quot;,&quot;format&quot;:&quot;svg&quot;}" id="T1-XE717wi-3wMaK3hyC-5">
          <mxCell style="shape=image;noLabel=1;verticalAlign=top;aspect=fixed;imageAspect=0;image=data:image/svg+xml,PHN2ZyB4bWxucz0iaHR0cDovL3d3dy53My5vcmcvMjAwMC9zdmciIHhtbG5zOnhsaW5rPSJodHRwOi8vd3d3LnczLm9yZy8xOTk5L3hsaW5rIiBjb250ZW50U3R5bGVUeXBlPSJ0ZXh0L2NzcyIgZGF0YS1kaWFncmFtLXR5cGU9IkNMQVNTIiBoZWlnaHQ9IjExM3B4IiBwcmVzZXJ2ZUFzcGVjdFJhdGlvPSJub25lIiBzdHlsZT0id2lkdGg6MTkzcHg7aGVpZ2h0OjExM3B4O2JhY2tncm91bmQ6I0ZGRkZGRjsiIHZlcnNpb249IjEuMSIgdmlld0JveD0iMCAwIDE5MyAxMTMiIHdpZHRoPSIxOTNweCIgem9vbUFuZFBhbj0ibWFnbmlmeSI+PGRlZnMvPjxnPjwhLS1jbGFzcyBPcmRlcl9zdGF0dXNfaGlzdG9yeS0tPjxnIGNsYXNzPSJlbnRpdHkiIGRhdGEtZW50aXR5PSJPcmRlcl9zdGF0dXNfaGlzdG9yeSIgZGF0YS1zb3VyY2UtbGluZT0iMSIgZGF0YS11aWQ9ImVudDAwMDIiIGlkPSJlbnRpdHlfT3JkZXJfc3RhdHVzX2hpc3RvcnkiPjxyZWN0IGZpbGw9IiNGMUYxRjEiIGhlaWdodD0iOTIuOTUzMSIgcng9IjIuNSIgcnk9IjIuNSIgc3R5bGU9InN0cm9rZTojMTgxODE4O3N0cm9rZS13aWR0aDowLjU7IiB3aWR0aD0iMTcyIiB4PSI3IiB5PSI3Ii8+PGVsbGlwc2UgY3g9IjIyIiBjeT0iMjMiIGZpbGw9IiNBREQxQjIiIHJ4PSIxMSIgcnk9IjExIiBzdHlsZT0ic3Ryb2tlOiMxODE4MTg7c3Ryb2tlLXdpZHRoOjE7Ii8+PHBhdGggZD0iTTE5LjYyNSwyNy4yNSBMMTkuNjI1LDI5IEwyNC41NjI1LDI5IEwyNC41NjI1LDI3LjI1IEwxOS42MjUsMjcuMjUgWiBNMjAuMzEyNSwyNy45Mzc1IFEyMC4zMTI1LDI3LjkzNzUgMjAuMzEyNSwxOC43NSBMMTguNTYyNSwxOC43NSBRMTguNTYyNSwxOC43NSAxOC41NjI1LDI3LjkzNzUgTDIwLjMxMjUsMjcuOTM3NSBaIE0yMy44NzUsMjcuOTM3NSBMMjUuNjI1LDI3LjkzNzUgUTI1LjYyNSwyNy45Mzc1IDI1LjYyNSwyNS4xMjUgTDIzLjg3NSwyNS4xMjUgUTIzLjg3NSwyNS4xMjUgMjMuODc1LDI3LjkzNzUgWiBNMjMuODc1LDE4Ljc1IFEyMy44NzUsMTguNzUgMjMuODc1LDIxLjU2MjUgTDI1LjYyNSwyMS41NjI1IFEyNS42MjUsMjEuNTYyNSAyNS42MjUsMTguNzUgTDIzLjg3NSwxOC43NSBaIE0xOS42MjUsMTkuNDM3NSBMMjQuNTYyNSwxOS40Mzc1IEwyNC41NjI1LDE3LjY4NzUgTDE5LjYyNSwxNy42ODc1IEwxOS42MjUsMTkuNDM3NSBaICIgZmlsbD0iIzAwMDAwMCIvPjx0ZXh0IGZpbGw9IiMwMDAwMDAiIGZvbnQtZmFtaWx5PSJzYW5zLXNlcmlmIiBmb250LXNpemU9IjE0IiBsZW5ndGhBZGp1c3Q9InNwYWNpbmciIHRleHRMZW5ndGg9IjE0MCIgeD0iMzYiIHk9IjI4Ljc0MjIiPk9yZGVyX3N0YXR1c19oaXN0b3J5PC90ZXh0PjxsaW5lIHN0eWxlPSJzdHJva2U6IzE4MTgxODtzdHJva2Utd2lkdGg6MC41OyIgeDE9IjgiIHgyPSIxNzgiIHkxPSIzOSIgeTI9IjM5Ii8+PHRleHQgZmlsbD0iIzAwMDAwMCIgZm9udC1mYW1pbHk9InNhbnMtc2VyaWYiIGZvbnQtc2l6ZT0iMTQiIGxlbmd0aEFkanVzdD0ic3BhY2luZyIgdGV4dExlbmd0aD0iMTEyIiB4PSIxMyIgeT0iNTYuMjM0NCI+b3JkZXJfaWQ6IHN0cmluZzwvdGV4dD48dGV4dCBmaWxsPSIjMDAwMDAwIiBmb250LWZhbWlseT0ic2Fucy1zZXJpZiIgZm9udC1zaXplPSIxNCIgbGVuZ3RoQWRqdXN0PSJzcGFjaW5nIiB0ZXh0TGVuZ3RoPSIxMzMiIHg9IjEzIiB5PSI3MS4yMTg4Ij5zdGF0dXNfY29kZTogc3RyaW5nPC90ZXh0Pjx0ZXh0IGZpbGw9IiMwMDAwMDAiIGZvbnQtZmFtaWx5PSJzYW5zLXNlcmlmIiBmb250LXNpemU9IjE0IiBsZW5ndGhBZGp1c3Q9InNwYWNpbmciIHRleHRMZW5ndGg9Ijk4IiB4PSIxMyIgeT0iODYuMjAzMSI+dGltZV9zZXQ6IHRpbWU8L3RleHQ+PGxpbmUgc3R5bGU9InN0cm9rZTojMTgxODE4O3N0cm9rZS13aWR0aDowLjU7IiB4MT0iOCIgeDI9IjE3OCIgeTE9IjkxLjk1MzEiIHkyPSI5MS45NTMxIi8+PC9nPjwhLS1TUkM9W0l5djlCMnZNeTJ6QUlJc0FCb3Y5QjJhalppXzhCMng5QndmS2dFUElLQ1c3SXNJY00yYUtibkhidmdLM1hRMmdhbERKS2Y1NElwOXBLLUVCS3FraW0yb2tNVzAwXS0tPjwvZz48L3N2Zz4=;" vertex="1" parent="WIyWlLk6GJQsqaUBKTNV-1">
            <mxGeometry x="43" y="465" width="193" height="113" as="geometry" />
          </mxCell>
        </UserObject>
        <UserObject label="" plantUmlData="{&quot;data&quot;:&quot;@startuml\n\nclass Ingredient_change {\n  id: string\n  change: string\n}\n\n@enduml\n&quot;,&quot;format&quot;:&quot;svg&quot;}" id="T1-XE717wi-3wMaK3hyC-6">
          <mxCell style="shape=image;noLabel=1;verticalAlign=top;aspect=fixed;imageAspect=0;image=data:image/svg+xml,PHN2ZyB4bWxucz0iaHR0cDovL3d3dy53My5vcmcvMjAwMC9zdmciIHhtbG5zOnhsaW5rPSJodHRwOi8vd3d3LnczLm9yZy8xOTk5L3hsaW5rIiBjb250ZW50U3R5bGVUeXBlPSJ0ZXh0L2NzcyIgZGF0YS1kaWFncmFtLXR5cGU9IkNMQVNTIiBoZWlnaHQ9Ijk4cHgiIHByZXNlcnZlQXNwZWN0UmF0aW89Im5vbmUiIHN0eWxlPSJ3aWR0aDoxNzJweDtoZWlnaHQ6OThweDtiYWNrZ3JvdW5kOiNGRkZGRkY7IiB2ZXJzaW9uPSIxLjEiIHZpZXdCb3g9IjAgMCAxNzIgOTgiIHdpZHRoPSIxNzJweCIgem9vbUFuZFBhbj0ibWFnbmlmeSI+PGRlZnMvPjxnPjwhLS1jbGFzcyBJbmdyZWRpZW50X2NoYW5nZS0tPjxnIGNsYXNzPSJlbnRpdHkiIGRhdGEtZW50aXR5PSJJbmdyZWRpZW50X2NoYW5nZSIgZGF0YS1zb3VyY2UtbGluZT0iMSIgZGF0YS11aWQ9ImVudDAwMDIiIGlkPSJlbnRpdHlfSW5ncmVkaWVudF9jaGFuZ2UiPjxyZWN0IGZpbGw9IiNGMUYxRjEiIGhlaWdodD0iNzcuOTY4OCIgcng9IjIuNSIgcnk9IjIuNSIgc3R5bGU9InN0cm9rZTojMTgxODE4O3N0cm9rZS13aWR0aDowLjU7IiB3aWR0aD0iMTUxIiB4PSI3IiB5PSI3Ii8+PGVsbGlwc2UgY3g9IjIyIiBjeT0iMjMiIGZpbGw9IiNBREQxQjIiIHJ4PSIxMSIgcnk9IjExIiBzdHlsZT0ic3Ryb2tlOiMxODE4MTg7c3Ryb2tlLXdpZHRoOjE7Ii8+PHBhdGggZD0iTTE5LjYyNSwyNy4yNSBMMTkuNjI1LDI5IEwyNC41NjI1LDI5IEwyNC41NjI1LDI3LjI1IEwxOS42MjUsMjcuMjUgWiBNMjAuMzEyNSwyNy45Mzc1IFEyMC4zMTI1LDI3LjkzNzUgMjAuMzEyNSwxOC43NSBMMTguNTYyNSwxOC43NSBRMTguNTYyNSwxOC43NSAxOC41NjI1LDI3LjkzNzUgTDIwLjMxMjUsMjcuOTM3NSBaIE0yMy44NzUsMjcuOTM3NSBMMjUuNjI1LDI3LjkzNzUgUTI1LjYyNSwyNy45Mzc1IDI1LjYyNSwyNS4xMjUgTDIzLjg3NSwyNS4xMjUgUTIzLjg3NSwyNS4xMjUgMjMuODc1LDI3LjkzNzUgWiBNMjMuODc1LDE4Ljc1IFEyMy44NzUsMTguNzUgMjMuODc1LDIxLjU2MjUgTDI1LjYyNSwyMS41NjI1IFEyNS42MjUsMjEuNTYyNSAyNS42MjUsMTguNzUgTDIzLjg3NSwxOC43NSBaIE0xOS42MjUsMTkuNDM3NSBMMjQuNTYyNSwxOS40Mzc1IEwyNC41NjI1LDE3LjY4NzUgTDE5LjYyNSwxNy42ODc1IEwxOS42MjUsMTkuNDM3NSBaICIgZmlsbD0iIzAwMDAwMCIvPjx0ZXh0IGZpbGw9IiMwMDAwMDAiIGZvbnQtZmFtaWx5PSJzYW5zLXNlcmlmIiBmb250LXNpemU9IjE0IiBsZW5ndGhBZGp1c3Q9InNwYWNpbmciIHRleHRMZW5ndGg9IjExOSIgeD0iMzYiIHk9IjI4Ljc0MjIiPkluZ3JlZGllbnRfY2hhbmdlPC90ZXh0PjxsaW5lIHN0eWxlPSJzdHJva2U6IzE4MTgxODtzdHJva2Utd2lkdGg6MC41OyIgeDE9IjgiIHgyPSIxNTciIHkxPSIzOSIgeTI9IjM5Ii8+PHRleHQgZmlsbD0iIzAwMDAwMCIgZm9udC1mYW1pbHk9InNhbnMtc2VyaWYiIGZvbnQtc2l6ZT0iMTQiIGxlbmd0aEFkanVzdD0ic3BhY2luZyIgdGV4dExlbmd0aD0iNzAiIHg9IjEzIiB5PSI1Ni4yMzQ0Ij5pZDogc3RyaW5nPC90ZXh0Pjx0ZXh0IGZpbGw9IiMwMDAwMDAiIGZvbnQtZmFtaWx5PSJzYW5zLXNlcmlmIiBmb250LXNpemU9IjE0IiBsZW5ndGhBZGp1c3Q9InNwYWNpbmciIHRleHRMZW5ndGg9Ijk4IiB4PSIxMyIgeT0iNzEuMjE4OCI+Y2hhbmdlOiBzdHJpbmc8L3RleHQ+PGxpbmUgc3R5bGU9InN0cm9rZTojMTgxODE4O3N0cm9rZS13aWR0aDowLjU7IiB4MT0iOCIgeDI9IjE1NyIgeTE9Ijc2Ljk2ODgiIHkyPSI3Ni45Njg4Ii8+PC9nPjwhLS1TUkM9W0l5djlCMnZNeUNuQkJxZkRvS3BEQXViRnBhWkNJcXpMZ0VQSUtDWENpTDhlQllkQXA0aTdTWTNZUzg1UTAwMDBdLS0+PC9nPjwvc3ZnPg==;" vertex="1" parent="WIyWlLk6GJQsqaUBKTNV-1">
            <mxGeometry x="593" y="480" width="172" height="98" as="geometry" />
          </mxCell>
        </UserObject>
        <UserObject label="" plantUmlData="{&quot;data&quot;:&quot;@startuml\n\nclass Ingredient {\n  id: string\n  name: string\n  img: string\n  changes_detail: array [ { changes_code:string, price:int } ]\n  \n}\n\n@enduml\n&quot;,&quot;format&quot;:&quot;svg&quot;}" id="T1-XE717wi-3wMaK3hyC-7">
          <mxCell style="shape=image;noLabel=1;verticalAlign=top;aspect=fixed;imageAspect=0;image=data:image/svg+xml,PHN2ZyB4bWxucz0iaHR0cDovL3d3dy53My5vcmcvMjAwMC9zdmciIHhtbG5zOnhsaW5rPSJodHRwOi8vd3d3LnczLm9yZy8xOTk5L3hsaW5rIiBjb250ZW50U3R5bGVUeXBlPSJ0ZXh0L2NzcyIgZGF0YS1kaWFncmFtLXR5cGU9IkNMQVNTIiBoZWlnaHQ9IjEyOHB4IiBwcmVzZXJ2ZUFzcGVjdFJhdGlvPSJub25lIiBzdHlsZT0id2lkdGg6NDUzcHg7aGVpZ2h0OjEyOHB4O2JhY2tncm91bmQ6I0ZGRkZGRjsiIHZlcnNpb249IjEuMSIgdmlld0JveD0iMCAwIDQ1MyAxMjgiIHdpZHRoPSI0NTNweCIgem9vbUFuZFBhbj0ibWFnbmlmeSI+PGRlZnMvPjxnPjwhLS1jbGFzcyBJbmdyZWRpZW50LS0+PGcgY2xhc3M9ImVudGl0eSIgZGF0YS1lbnRpdHk9IkluZ3JlZGllbnQiIGRhdGEtc291cmNlLWxpbmU9IjEiIGRhdGEtdWlkPSJlbnQwMDAyIiBpZD0iZW50aXR5X0luZ3JlZGllbnQiPjxyZWN0IGZpbGw9IiNGMUYxRjEiIGhlaWdodD0iMTA3LjkzNzUiIHJ4PSIyLjUiIHJ5PSIyLjUiIHN0eWxlPSJzdHJva2U6IzE4MTgxODtzdHJva2Utd2lkdGg6MC41OyIgd2lkdGg9IjQzMiIgeD0iNyIgeT0iNyIvPjxlbGxpcHNlIGN4PSIxODMuNzUiIGN5PSIyMyIgZmlsbD0iI0FERDFCMiIgcng9IjExIiByeT0iMTEiIHN0eWxlPSJzdHJva2U6IzE4MTgxODtzdHJva2Utd2lkdGg6MTsiLz48cGF0aCBkPSJNMTgxLjM3NSwyNy4yNSBMMTgxLjM3NSwyOSBMMTg2LjMxMjUsMjkgTDE4Ni4zMTI1LDI3LjI1IEwxODEuMzc1LDI3LjI1IFogTTE4Mi4wNjI1LDI3LjkzNzUgUTE4Mi4wNjI1LDI3LjkzNzUgMTgyLjA2MjUsMTguNzUgTDE4MC4zMTI1LDE4Ljc1IFExODAuMzEyNSwxOC43NSAxODAuMzEyNSwyNy45Mzc1IEwxODIuMDYyNSwyNy45Mzc1IFogTTE4NS42MjUsMjcuOTM3NSBMMTg3LjM3NSwyNy45Mzc1IFExODcuMzc1LDI3LjkzNzUgMTg3LjM3NSwyNS4xMjUgTDE4NS42MjUsMjUuMTI1IFExODUuNjI1LDI1LjEyNSAxODUuNjI1LDI3LjkzNzUgWiBNMTg1LjYyNSwxOC43NSBRMTg1LjYyNSwxOC43NSAxODUuNjI1LDIxLjU2MjUgTDE4Ny4zNzUsMjEuNTYyNSBRMTg3LjM3NSwyMS41NjI1IDE4Ny4zNzUsMTguNzUgTDE4NS42MjUsMTguNzUgWiBNMTgxLjM3NSwxOS40Mzc1IEwxODYuMzEyNSwxOS40Mzc1IEwxODYuMzEyNSwxNy42ODc1IEwxODEuMzc1LDE3LjY4NzUgTDE4MS4zNzUsMTkuNDM3NSBaICIgZmlsbD0iIzAwMDAwMCIvPjx0ZXh0IGZpbGw9IiMwMDAwMDAiIGZvbnQtZmFtaWx5PSJzYW5zLXNlcmlmIiBmb250LXNpemU9IjE0IiBsZW5ndGhBZGp1c3Q9InNwYWNpbmciIHRleHRMZW5ndGg9IjcwIiB4PSIyMDQuMjUiIHk9IjI4Ljc0MjIiPkluZ3JlZGllbnQ8L3RleHQ+PGxpbmUgc3R5bGU9InN0cm9rZTojMTgxODE4O3N0cm9rZS13aWR0aDowLjU7IiB4MT0iOCIgeDI9IjQzOCIgeTE9IjM5IiB5Mj0iMzkiLz48dGV4dCBmaWxsPSIjMDAwMDAwIiBmb250LWZhbWlseT0ic2Fucy1zZXJpZiIgZm9udC1zaXplPSIxNCIgbGVuZ3RoQWRqdXN0PSJzcGFjaW5nIiB0ZXh0TGVuZ3RoPSI3MCIgeD0iMTMiIHk9IjU2LjIzNDQiPmlkOiBzdHJpbmc8L3RleHQ+PHRleHQgZmlsbD0iIzAwMDAwMCIgZm9udC1mYW1pbHk9InNhbnMtc2VyaWYiIGZvbnQtc2l6ZT0iMTQiIGxlbmd0aEFkanVzdD0ic3BhY2luZyIgdGV4dExlbmd0aD0iODQiIHg9IjEzIiB5PSI3MS4yMTg4Ij5uYW1lOiBzdHJpbmc8L3RleHQ+PHRleHQgZmlsbD0iIzAwMDAwMCIgZm9udC1mYW1pbHk9InNhbnMtc2VyaWYiIGZvbnQtc2l6ZT0iMTQiIGxlbmd0aEFkanVzdD0ic3BhY2luZyIgdGV4dExlbmd0aD0iNzciIHg9IjEzIiB5PSI4Ni4yMDMxIj5pbWc6IHN0cmluZzwvdGV4dD48dGV4dCBmaWxsPSIjMDAwMDAwIiBmb250LWZhbWlseT0ic2Fucy1zZXJpZiIgZm9udC1zaXplPSIxNCIgbGVuZ3RoQWRqdXN0PSJzcGFjaW5nIiB0ZXh0TGVuZ3RoPSI0MjAiIHg9IjEzIiB5PSIxMDEuMTg3NSI+Y2hhbmdlc19kZXRhaWw6IGFycmF5IFsgeyBjaGFuZ2VzX2NvZGU6c3RyaW5nLCBwcmljZTppbnQgfSBdPC90ZXh0PjxsaW5lIHN0eWxlPSJzdHJva2U6IzE4MTgxODtzdHJva2Utd2lkdGg6MC41OyIgeDE9IjgiIHgyPSI0MzgiIHkxPSIxMDYuOTM3NSIgeTI9IjEwNi45Mzc1Ii8+PC9nPjwhLS1TUkM9W0pTdEgyTzBtMzBKR19xdm4wcFgxRHQwNjRHYmpZMDZEYWxQN25EcWoyREJGbnpyblFRRElDOWV1UHNNaGswRVdFUTlLTHZDNmV2cXh3WXdUcWFlY045UkNiTklCODdVd0NFNy1hdEhhWmJ6X21FY1FFNmd4VUoydFVOWFVdLS0+PC9nPjwvc3ZnPg==;" vertex="1" parent="WIyWlLk6GJQsqaUBKTNV-1">
            <mxGeometry x="360.5" y="597.5" width="453" height="128" as="geometry" />
          </mxCell>
        </UserObject>
        <UserObject label="" plantUmlData="{&quot;data&quot;:&quot;@startuml\n\nclass Product {\n  id: string\n  name: string\n  description: string (optional)\n  price: int\n  img: string\n  ingredients : array [ { Ingredient } ]\n  destination_code: string\n}\n\n@enduml\n&quot;,&quot;format&quot;:&quot;svg&quot;}" id="T1-XE717wi-3wMaK3hyC-9">
          <mxCell style="shape=image;noLabel=1;verticalAlign=top;aspect=fixed;imageAspect=0;image=data:image/svg+xml,PHN2ZyB4bWxucz0iaHR0cDovL3d3dy53My5vcmcvMjAwMC9zdmciIHhtbG5zOnhsaW5rPSJodHRwOi8vd3d3LnczLm9yZy8xOTk5L3hsaW5rIiBjb250ZW50U3R5bGVUeXBlPSJ0ZXh0L2NzcyIgZGF0YS1kaWFncmFtLXR5cGU9IkNMQVNTIiBoZWlnaHQ9IjE3M3B4IiBwcmVzZXJ2ZUFzcGVjdFJhdGlvPSJub25lIiBzdHlsZT0id2lkdGg6Mjk5cHg7aGVpZ2h0OjE3M3B4O2JhY2tncm91bmQ6I0ZGRkZGRjsiIHZlcnNpb249IjEuMSIgdmlld0JveD0iMCAwIDI5OSAxNzMiIHdpZHRoPSIyOTlweCIgem9vbUFuZFBhbj0ibWFnbmlmeSI+PGRlZnMvPjxnPjwhLS1jbGFzcyBQcm9kdWN0LS0+PGcgY2xhc3M9ImVudGl0eSIgZGF0YS1lbnRpdHk9IlByb2R1Y3QiIGRhdGEtc291cmNlLWxpbmU9IjEiIGRhdGEtdWlkPSJlbnQwMDAyIiBpZD0iZW50aXR5X1Byb2R1Y3QiPjxyZWN0IGZpbGw9IiNGMUYxRjEiIGhlaWdodD0iMTUyLjg5MDYiIHJ4PSIyLjUiIHJ5PSIyLjUiIHN0eWxlPSJzdHJva2U6IzE4MTgxODtzdHJva2Utd2lkdGg6MC41OyIgd2lkdGg9IjI3OCIgeD0iNyIgeT0iNyIvPjxlbGxpcHNlIGN4PSIxMTcuMjUiIGN5PSIyMyIgZmlsbD0iI0FERDFCMiIgcng9IjExIiByeT0iMTEiIHN0eWxlPSJzdHJva2U6IzE4MTgxODtzdHJva2Utd2lkdGg6MTsiLz48cGF0aCBkPSJNMTE0Ljg3NSwyNy4yNSBMMTE0Ljg3NSwyOSBMMTE5LjgxMjUsMjkgTDExOS44MTI1LDI3LjI1IEwxMTQuODc1LDI3LjI1IFogTTExNS41NjI1LDI3LjkzNzUgUTExNS41NjI1LDI3LjkzNzUgMTE1LjU2MjUsMTguNzUgTDExMy44MTI1LDE4Ljc1IFExMTMuODEyNSwxOC43NSAxMTMuODEyNSwyNy45Mzc1IEwxMTUuNTYyNSwyNy45Mzc1IFogTTExOS4xMjUsMjcuOTM3NSBMMTIwLjg3NSwyNy45Mzc1IFExMjAuODc1LDI3LjkzNzUgMTIwLjg3NSwyNS4xMjUgTDExOS4xMjUsMjUuMTI1IFExMTkuMTI1LDI1LjEyNSAxMTkuMTI1LDI3LjkzNzUgWiBNMTE5LjEyNSwxOC43NSBRMTE5LjEyNSwxOC43NSAxMTkuMTI1LDIxLjU2MjUgTDEyMC44NzUsMjEuNTYyNSBRMTIwLjg3NSwyMS41NjI1IDEyMC44NzUsMTguNzUgTDExOS4xMjUsMTguNzUgWiBNMTE0Ljg3NSwxOS40Mzc1IEwxMTkuODEyNSwxOS40Mzc1IEwxMTkuODEyNSwxNy42ODc1IEwxMTQuODc1LDE3LjY4NzUgTDExNC44NzUsMTkuNDM3NSBaICIgZmlsbD0iIzAwMDAwMCIvPjx0ZXh0IGZpbGw9IiMwMDAwMDAiIGZvbnQtZmFtaWx5PSJzYW5zLXNlcmlmIiBmb250LXNpemU9IjE0IiBsZW5ndGhBZGp1c3Q9InNwYWNpbmciIHRleHRMZW5ndGg9IjQ5IiB4PSIxMzcuNzUiIHk9IjI4Ljc0MjIiPlByb2R1Y3Q8L3RleHQ+PGxpbmUgc3R5bGU9InN0cm9rZTojMTgxODE4O3N0cm9rZS13aWR0aDowLjU7IiB4MT0iOCIgeDI9IjI4NCIgeTE9IjM5IiB5Mj0iMzkiLz48dGV4dCBmaWxsPSIjMDAwMDAwIiBmb250LWZhbWlseT0ic2Fucy1zZXJpZiIgZm9udC1zaXplPSIxNCIgbGVuZ3RoQWRqdXN0PSJzcGFjaW5nIiB0ZXh0TGVuZ3RoPSI3MCIgeD0iMTMiIHk9IjU2LjIzNDQiPmlkOiBzdHJpbmc8L3RleHQ+PHRleHQgZmlsbD0iIzAwMDAwMCIgZm9udC1mYW1pbHk9InNhbnMtc2VyaWYiIGZvbnQtc2l6ZT0iMTQiIGxlbmd0aEFkanVzdD0ic3BhY2luZyIgdGV4dExlbmd0aD0iODQiIHg9IjEzIiB5PSI3MS4yMTg4Ij5uYW1lOiBzdHJpbmc8L3RleHQ+PHRleHQgZmlsbD0iIzAwMDAwMCIgZm9udC1mYW1pbHk9InNhbnMtc2VyaWYiIGZvbnQtc2l6ZT0iMTQiIGxlbmd0aEFkanVzdD0ic3BhY2luZyIgdGV4dExlbmd0aD0iNzAiIHg9IjEzIiB5PSI4Ni4yMDMxIj5wcmljZTogaW50PC90ZXh0Pjx0ZXh0IGZpbGw9IiMwMDAwMDAiIGZvbnQtZmFtaWx5PSJzYW5zLXNlcmlmIiBmb250LXNpemU9IjE0IiBsZW5ndGhBZGp1c3Q9InNwYWNpbmciIHRleHRMZW5ndGg9Ijc3IiB4PSIxMyIgeT0iMTAxLjE4NzUiPmltZzogc3RyaW5nPC90ZXh0Pjx0ZXh0IGZpbGw9IiMwMDAwMDAiIGZvbnQtZmFtaWx5PSJzYW5zLXNlcmlmIiBmb250LXNpemU9IjE0IiBsZW5ndGhBZGp1c3Q9InNwYWNpbmciIHRleHRMZW5ndGg9IjI2NiIgeD0iMTMiIHk9IjExNi4xNzE5Ij5pbmdyZWRpZW50cyA6IGFycmF5IFsgeyBJbmdyZWRpZW50IH0gXTwvdGV4dD48dGV4dCBmaWxsPSIjMDAwMDAwIiBmb250LWZhbWlseT0ic2Fucy1zZXJpZiIgZm9udC1zaXplPSIxNCIgbGVuZ3RoQWRqdXN0PSJzcGFjaW5nIiB0ZXh0TGVuZ3RoPSIxNjgiIHg9IjEzIiB5PSIxMzEuMTU2MyI+ZGVzdGluYXRpb25fY29kZTogc3RyaW5nPC90ZXh0PjxsaW5lIHN0eWxlPSJzdHJva2U6IzE4MTgxODtzdHJva2Utd2lkdGg6MC41OyIgeDE9IjgiIHgyPSIyODQiIHkxPSIxMzYuOTA2MyIgeTI9IjEzNi45MDYzIi8+PHRleHQgZmlsbD0iIzAwMDAwMCIgZm9udC1mYW1pbHk9InNhbnMtc2VyaWYiIGZvbnQtc2l6ZT0iMTQiIGxlbmd0aEFkanVzdD0ic3BhY2luZyIgdGV4dExlbmd0aD0iMjEwIiB4PSIxMyIgeT0iMTU0LjE0MDYiPmRlc2NyaXB0aW9uOiBzdHJpbmcgKG9wdGlvbmFsKTwvdGV4dD48L2c+PCEtLVNSQz1bSk9yRDJpOUczOEp0ZGNBTVVlTlVtOXJ4QUhBSUhtY3FVSU05Mm9jemt3eUxqUGsxUnZXVjdZYTJEd19vdkNIbzBiR3dIQmhRcUMxZUFXVUs0a213ZnJSeGtaWk5kTWN5akMzaW9nc1diamxJRDFvd0pSczg1aWowMXRBZDUtdk9TRnR2TUQ1X0piQURqajQ3TF9kX2hzeTBdLS0+PC9nPjwvc3ZnPg==;" vertex="1" parent="WIyWlLk6GJQsqaUBKTNV-1">
            <mxGeometry x="24" y="597.5" width="299" height="173" as="geometry" />
          </mxCell>
        </UserObject>
        <UserObject label="" plantUmlData="{&quot;data&quot;:&quot;@startuml\n\nclass Product_destination {\n  id: string\n  destination: string\n}\n\n@enduml\n&quot;,&quot;format&quot;:&quot;svg&quot;}" id="T1-XE717wi-3wMaK3hyC-10">
          <mxCell style="shape=image;noLabel=1;verticalAlign=top;aspect=fixed;imageAspect=0;image=data:image/svg+xml,PHN2ZyB4bWxucz0iaHR0cDovL3d3dy53My5vcmcvMjAwMC9zdmciIHhtbG5zOnhsaW5rPSJodHRwOi8vd3d3LnczLm9yZy8xOTk5L3hsaW5rIiBjb250ZW50U3R5bGVUeXBlPSJ0ZXh0L2NzcyIgZGF0YS1kaWFncmFtLXR5cGU9IkNMQVNTIiBoZWlnaHQ9Ijk4cHgiIHByZXNlcnZlQXNwZWN0UmF0aW89Im5vbmUiIHN0eWxlPSJ3aWR0aDoxODZweDtoZWlnaHQ6OThweDtiYWNrZ3JvdW5kOiNGRkZGRkY7IiB2ZXJzaW9uPSIxLjEiIHZpZXdCb3g9IjAgMCAxODYgOTgiIHdpZHRoPSIxODZweCIgem9vbUFuZFBhbj0ibWFnbmlmeSI+PGRlZnMvPjxnPjwhLS1jbGFzcyBQcm9kdWN0X2Rlc3RpbmF0aW9uLS0+PGcgY2xhc3M9ImVudGl0eSIgZGF0YS1lbnRpdHk9IlByb2R1Y3RfZGVzdGluYXRpb24iIGRhdGEtc291cmNlLWxpbmU9IjEiIGRhdGEtdWlkPSJlbnQwMDAyIiBpZD0iZW50aXR5X1Byb2R1Y3RfZGVzdGluYXRpb24iPjxyZWN0IGZpbGw9IiNGMUYxRjEiIGhlaWdodD0iNzcuOTY4OCIgcng9IjIuNSIgcnk9IjIuNSIgc3R5bGU9InN0cm9rZTojMTgxODE4O3N0cm9rZS13aWR0aDowLjU7IiB3aWR0aD0iMTY1IiB4PSI3IiB5PSI3Ii8+PGVsbGlwc2UgY3g9IjIyIiBjeT0iMjMiIGZpbGw9IiNBREQxQjIiIHJ4PSIxMSIgcnk9IjExIiBzdHlsZT0ic3Ryb2tlOiMxODE4MTg7c3Ryb2tlLXdpZHRoOjE7Ii8+PHBhdGggZD0iTTE5LjYyNSwyNy4yNSBMMTkuNjI1LDI5IEwyNC41NjI1LDI5IEwyNC41NjI1LDI3LjI1IEwxOS42MjUsMjcuMjUgWiBNMjAuMzEyNSwyNy45Mzc1IFEyMC4zMTI1LDI3LjkzNzUgMjAuMzEyNSwxOC43NSBMMTguNTYyNSwxOC43NSBRMTguNTYyNSwxOC43NSAxOC41NjI1LDI3LjkzNzUgTDIwLjMxMjUsMjcuOTM3NSBaIE0yMy44NzUsMjcuOTM3NSBMMjUuNjI1LDI3LjkzNzUgUTI1LjYyNSwyNy45Mzc1IDI1LjYyNSwyNS4xMjUgTDIzLjg3NSwyNS4xMjUgUTIzLjg3NSwyNS4xMjUgMjMuODc1LDI3LjkzNzUgWiBNMjMuODc1LDE4Ljc1IFEyMy44NzUsMTguNzUgMjMuODc1LDIxLjU2MjUgTDI1LjYyNSwyMS41NjI1IFEyNS42MjUsMjEuNTYyNSAyNS42MjUsMTguNzUgTDIzLjg3NSwxOC43NSBaIE0xOS42MjUsMTkuNDM3NSBMMjQuNTYyNSwxOS40Mzc1IEwyNC41NjI1LDE3LjY4NzUgTDE5LjYyNSwxNy42ODc1IEwxOS42MjUsMTkuNDM3NSBaICIgZmlsbD0iIzAwMDAwMCIvPjx0ZXh0IGZpbGw9IiMwMDAwMDAiIGZvbnQtZmFtaWx5PSJzYW5zLXNlcmlmIiBmb250LXNpemU9IjE0IiBsZW5ndGhBZGp1c3Q9InNwYWNpbmciIHRleHRMZW5ndGg9IjEzMyIgeD0iMzYiIHk9IjI4Ljc0MjIiPlByb2R1Y3RfZGVzdGluYXRpb248L3RleHQ+PGxpbmUgc3R5bGU9InN0cm9rZTojMTgxODE4O3N0cm9rZS13aWR0aDowLjU7IiB4MT0iOCIgeDI9IjE3MSIgeTE9IjM5IiB5Mj0iMzkiLz48dGV4dCBmaWxsPSIjMDAwMDAwIiBmb250LWZhbWlseT0ic2Fucy1zZXJpZiIgZm9udC1zaXplPSIxNCIgbGVuZ3RoQWRqdXN0PSJzcGFjaW5nIiB0ZXh0TGVuZ3RoPSI3MCIgeD0iMTMiIHk9IjU2LjIzNDQiPmlkOiBzdHJpbmc8L3RleHQ+PHRleHQgZmlsbD0iIzAwMDAwMCIgZm9udC1mYW1pbHk9InNhbnMtc2VyaWYiIGZvbnQtc2l6ZT0iMTQiIGxlbmd0aEFkanVzdD0ic3BhY2luZyIgdGV4dExlbmd0aD0iMTMzIiB4PSIxMyIgeT0iNzEuMjE4OCI+ZGVzdGluYXRpb246IHN0cmluZzwvdGV4dD48bGluZSBzdHlsZT0ic3Ryb2tlOiMxODE4MTg7c3Ryb2tlLXdpZHRoOjAuNTsiIHgxPSI4IiB4Mj0iMTcxIiB5MT0iNzYuOTY4OCIgeTI9Ijc2Ljk2ODgiLz48L2c+PCEtLVNSQz1bSXl2OUIydk0yMlpBSm9iREJlYkZJSXFrb1NuQkJDZENwckVldmI5R280b25LWVdrQVNoQ0ltVG9hMkpYZWhLMF0tLT48L2c+PC9zdmc+;" vertex="1" parent="WIyWlLk6GJQsqaUBKTNV-1">
            <mxGeometry x="343" y="786" width="186" height="98" as="geometry" />
          </mxCell>
        </UserObject>
        <UserObject label="" plantUmlData="{&quot;data&quot;:&quot;@startuml\n\nclass Product_destination {\n  id: string\n  destination: string\n}\n\n@enduml\n&quot;,&quot;format&quot;:&quot;svg&quot;}" id="T1-XE717wi-3wMaK3hyC-11">
          <mxCell style="shape=image;noLabel=1;verticalAlign=top;aspect=fixed;imageAspect=0;image=data:image/svg+xml,PHN2ZyB4bWxucz0iaHR0cDovL3d3dy53My5vcmcvMjAwMC9zdmciIHhtbG5zOnhsaW5rPSJodHRwOi8vd3d3LnczLm9yZy8xOTk5L3hsaW5rIiBjb250ZW50U3R5bGVUeXBlPSJ0ZXh0L2NzcyIgZGF0YS1kaWFncmFtLXR5cGU9IkNMQVNTIiBoZWlnaHQ9Ijk4cHgiIHByZXNlcnZlQXNwZWN0UmF0aW89Im5vbmUiIHN0eWxlPSJ3aWR0aDoxODZweDtoZWlnaHQ6OThweDtiYWNrZ3JvdW5kOiNGRkZGRkY7IiB2ZXJzaW9uPSIxLjEiIHZpZXdCb3g9IjAgMCAxODYgOTgiIHdpZHRoPSIxODZweCIgem9vbUFuZFBhbj0ibWFnbmlmeSI+PGRlZnMvPjxnPjwhLS1jbGFzcyBQcm9kdWN0X2Rlc3RpbmF0aW9uLS0+PGcgY2xhc3M9ImVudGl0eSIgZGF0YS1lbnRpdHk9IlByb2R1Y3RfZGVzdGluYXRpb24iIGRhdGEtc291cmNlLWxpbmU9IjEiIGRhdGEtdWlkPSJlbnQwMDAyIiBpZD0iZW50aXR5X1Byb2R1Y3RfZGVzdGluYXRpb24iPjxyZWN0IGZpbGw9IiNGMUYxRjEiIGhlaWdodD0iNzcuOTY4OCIgcng9IjIuNSIgcnk9IjIuNSIgc3R5bGU9InN0cm9rZTojMTgxODE4O3N0cm9rZS13aWR0aDowLjU7IiB3aWR0aD0iMTY1IiB4PSI3IiB5PSI3Ii8+PGVsbGlwc2UgY3g9IjIyIiBjeT0iMjMiIGZpbGw9IiNBREQxQjIiIHJ4PSIxMSIgcnk9IjExIiBzdHlsZT0ic3Ryb2tlOiMxODE4MTg7c3Ryb2tlLXdpZHRoOjE7Ii8+PHBhdGggZD0iTTE5LjYyNSwyNy4yNSBMMTkuNjI1LDI5IEwyNC41NjI1LDI5IEwyNC41NjI1LDI3LjI1IEwxOS42MjUsMjcuMjUgWiBNMjAuMzEyNSwyNy45Mzc1IFEyMC4zMTI1LDI3LjkzNzUgMjAuMzEyNSwxOC43NSBMMTguNTYyNSwxOC43NSBRMTguNTYyNSwxOC43NSAxOC41NjI1LDI3LjkzNzUgTDIwLjMxMjUsMjcuOTM3NSBaIE0yMy44NzUsMjcuOTM3NSBMMjUuNjI1LDI3LjkzNzUgUTI1LjYyNSwyNy45Mzc1IDI1LjYyNSwyNS4xMjUgTDIzLjg3NSwyNS4xMjUgUTIzLjg3NSwyNS4xMjUgMjMuODc1LDI3LjkzNzUgWiBNMjMuODc1LDE4Ljc1IFEyMy44NzUsMTguNzUgMjMuODc1LDIxLjU2MjUgTDI1LjYyNSwyMS41NjI1IFEyNS42MjUsMjEuNTYyNSAyNS42MjUsMTguNzUgTDIzLjg3NSwxOC43NSBaIE0xOS42MjUsMTkuNDM3NSBMMjQuNTYyNSwxOS40Mzc1IEwyNC41NjI1LDE3LjY4NzUgTDE5LjYyNSwxNy42ODc1IEwxOS42MjUsMTkuNDM3NSBaICIgZmlsbD0iIzAwMDAwMCIvPjx0ZXh0IGZpbGw9IiMwMDAwMDAiIGZvbnQtZmFtaWx5PSJzYW5zLXNlcmlmIiBmb250LXNpemU9IjE0IiBsZW5ndGhBZGp1c3Q9InNwYWNpbmciIHRleHRMZW5ndGg9IjEzMyIgeD0iMzYiIHk9IjI4Ljc0MjIiPlByb2R1Y3RfZGVzdGluYXRpb248L3RleHQ+PGxpbmUgc3R5bGU9InN0cm9rZTojMTgxODE4O3N0cm9rZS13aWR0aDowLjU7IiB4MT0iOCIgeDI9IjE3MSIgeTE9IjM5IiB5Mj0iMzkiLz48dGV4dCBmaWxsPSIjMDAwMDAwIiBmb250LWZhbWlseT0ic2Fucy1zZXJpZiIgZm9udC1zaXplPSIxNCIgbGVuZ3RoQWRqdXN0PSJzcGFjaW5nIiB0ZXh0TGVuZ3RoPSI3MCIgeD0iMTMiIHk9IjU2LjIzNDQiPmlkOiBzdHJpbmc8L3RleHQ+PHRleHQgZmlsbD0iIzAwMDAwMCIgZm9udC1mYW1pbHk9InNhbnMtc2VyaWYiIGZvbnQtc2l6ZT0iMTQiIGxlbmd0aEFkanVzdD0ic3BhY2luZyIgdGV4dExlbmd0aD0iMTMzIiB4PSIxMyIgeT0iNzEuMjE4OCI+ZGVzdGluYXRpb246IHN0cmluZzwvdGV4dD48bGluZSBzdHlsZT0ic3Ryb2tlOiMxODE4MTg7c3Ryb2tlLXdpZHRoOjAuNTsiIHgxPSI4IiB4Mj0iMTcxIiB5MT0iNzYuOTY4OCIgeTI9Ijc2Ljk2ODgiLz48L2c+PCEtLVNSQz1bSXl2OUIydk0yMlpBSm9iREJlYkZJSXFrb1NuQkJDZENwckVldmI5R280b25LWVdrQVNoQ0ltVG9hMkpYZWhLMF0tLT48L2c+PC9zdmc+;" vertex="1" parent="WIyWlLk6GJQsqaUBKTNV-1">
            <mxGeometry x="40" y="812" width="186" height="98" as="geometry" />
          </mxCell>
        </UserObject>
        <UserObject label="" plantUmlData="{&quot;data&quot;:&quot;@startuml\n\nclass Table {\n  id: string\n  customers: array [ Customers ] (optional)\n  orders : array [ Orders ] (optional)\n}\n\n@enduml\n&quot;,&quot;format&quot;:&quot;svg&quot;}" id="T1-XE717wi-3wMaK3hyC-14">
          <mxCell style="shape=image;noLabel=1;verticalAlign=top;aspect=fixed;imageAspect=0;image=data:image/svg+xml,PHN2ZyB4bWxucz0iaHR0cDovL3d3dy53My5vcmcvMjAwMC9zdmciIHhtbG5zOnhsaW5rPSJodHRwOi8vd3d3LnczLm9yZy8xOTk5L3hsaW5rIiBjb250ZW50U3R5bGVUeXBlPSJ0ZXh0L2NzcyIgZGF0YS1kaWFncmFtLXR5cGU9IkNMQVNTIiBoZWlnaHQ9IjExM3B4IiBwcmVzZXJ2ZUFzcGVjdFJhdGlvPSJub25lIiBzdHlsZT0id2lkdGg6MzIwcHg7aGVpZ2h0OjExM3B4O2JhY2tncm91bmQ6I0ZGRkZGRjsiIHZlcnNpb249IjEuMSIgdmlld0JveD0iMCAwIDMyMCAxMTMiIHdpZHRoPSIzMjBweCIgem9vbUFuZFBhbj0ibWFnbmlmeSI+PGRlZnMvPjxnPjwhLS1jbGFzcyBUYWJsZS0tPjxnIGNsYXNzPSJlbnRpdHkiIGRhdGEtZW50aXR5PSJUYWJsZSIgZGF0YS1zb3VyY2UtbGluZT0iMSIgZGF0YS11aWQ9ImVudDAwMDIiIGlkPSJlbnRpdHlfVGFibGUiPjxyZWN0IGZpbGw9IiNGMUYxRjEiIGhlaWdodD0iOTIuOTUzMSIgcng9IjIuNSIgcnk9IjIuNSIgc3R5bGU9InN0cm9rZTojMTgxODE4O3N0cm9rZS13aWR0aDowLjU7IiB3aWR0aD0iMjk5IiB4PSI3IiB5PSI3Ii8+PGVsbGlwc2UgY3g9IjEzNC43NSIgY3k9IjIzIiBmaWxsPSIjQUREMUIyIiByeD0iMTEiIHJ5PSIxMSIgc3R5bGU9InN0cm9rZTojMTgxODE4O3N0cm9rZS13aWR0aDoxOyIvPjxwYXRoIGQ9Ik0xMzIuMzc1LDI3LjI1IEwxMzIuMzc1LDI5IEwxMzcuMzEyNSwyOSBMMTM3LjMxMjUsMjcuMjUgTDEzMi4zNzUsMjcuMjUgWiBNMTMzLjA2MjUsMjcuOTM3NSBRMTMzLjA2MjUsMjcuOTM3NSAxMzMuMDYyNSwxOC43NSBMMTMxLjMxMjUsMTguNzUgUTEzMS4zMTI1LDE4Ljc1IDEzMS4zMTI1LDI3LjkzNzUgTDEzMy4wNjI1LDI3LjkzNzUgWiBNMTM2LjYyNSwyNy45Mzc1IEwxMzguMzc1LDI3LjkzNzUgUTEzOC4zNzUsMjcuOTM3NSAxMzguMzc1LDI1LjEyNSBMMTM2LjYyNSwyNS4xMjUgUTEzNi42MjUsMjUuMTI1IDEzNi42MjUsMjcuOTM3NSBaIE0xMzYuNjI1LDE4Ljc1IFExMzYuNjI1LDE4Ljc1IDEzNi42MjUsMjEuNTYyNSBMMTM4LjM3NSwyMS41NjI1IFExMzguMzc1LDIxLjU2MjUgMTM4LjM3NSwxOC43NSBMMTM2LjYyNSwxOC43NSBaIE0xMzIuMzc1LDE5LjQzNzUgTDEzNy4zMTI1LDE5LjQzNzUgTDEzNy4zMTI1LDE3LjY4NzUgTDEzMi4zNzUsMTcuNjg3NSBMMTMyLjM3NSwxOS40Mzc1IFogIiBmaWxsPSIjMDAwMDAwIi8+PHRleHQgZmlsbD0iIzAwMDAwMCIgZm9udC1mYW1pbHk9InNhbnMtc2VyaWYiIGZvbnQtc2l6ZT0iMTQiIGxlbmd0aEFkanVzdD0ic3BhY2luZyIgdGV4dExlbmd0aD0iMzUiIHg9IjE1NS4yNSIgeT0iMjguNzQyMiI+VGFibGU8L3RleHQ+PGxpbmUgc3R5bGU9InN0cm9rZTojMTgxODE4O3N0cm9rZS13aWR0aDowLjU7IiB4MT0iOCIgeDI9IjMwNSIgeTE9IjM5IiB5Mj0iMzkiLz48dGV4dCBmaWxsPSIjMDAwMDAwIiBmb250LWZhbWlseT0ic2Fucy1zZXJpZiIgZm9udC1zaXplPSIxNCIgbGVuZ3RoQWRqdXN0PSJzcGFjaW5nIiB0ZXh0TGVuZ3RoPSI3MCIgeD0iMTMiIHk9IjU2LjIzNDQiPmlkOiBzdHJpbmc8L3RleHQ+PGxpbmUgc3R5bGU9InN0cm9rZTojMTgxODE4O3N0cm9rZS13aWR0aDowLjU7IiB4MT0iOCIgeDI9IjMwNSIgeTE9IjYxLjk4NDQiIHkyPSI2MS45ODQ0Ii8+PHRleHQgZmlsbD0iIzAwMDAwMCIgZm9udC1mYW1pbHk9InNhbnMtc2VyaWYiIGZvbnQtc2l6ZT0iMTQiIGxlbmd0aEFkanVzdD0ic3BhY2luZyIgdGV4dExlbmd0aD0iMjg3IiB4PSIxMyIgeT0iNzkuMjE4OCI+Y3VzdG9tZXJzOiBhcnJheSBbIEN1c3RvbWVycyBdIChvcHRpb25hbCk8L3RleHQ+PHRleHQgZmlsbD0iIzAwMDAwMCIgZm9udC1mYW1pbHk9InNhbnMtc2VyaWYiIGZvbnQtc2l6ZT0iMTQiIGxlbmd0aEFkanVzdD0ic3BhY2luZyIgdGV4dExlbmd0aD0iMjUyIiB4PSIxMyIgeT0iOTQuMjAzMSI+b3JkZXJzIDogYXJyYXkgWyBPcmRlcnMgXSAob3B0aW9uYWwpPC90ZXh0PjwvZz48IS0tU1JDPVtJeXY5QjJ2TTI0YkNvYWJMZ0VQSUtDWENpTDhlQllkQXA0aTdTZjlCWXFsb1NyRUJZZ3FLNGVrQTRZaUxlWE1TT0s4QWlHZVEtR0tiY1ZidllKY1FHQk52SElhV0tPSEFWdVcwWWg5UTAwMDBdLS0+PC9nPjwvc3ZnPg==;" vertex="1" parent="WIyWlLk6GJQsqaUBKTNV-1">
            <mxGeometry x="413" y="120" width="320" height="113" as="geometry" />
          </mxCell>
        </UserObject>
        <UserObject label="" plantUmlData="{&quot;data&quot;:&quot;@startuml\n\nclass Section {\n  id: string\n  name: string\n  img: string\n  parent_id: string\n  products: array [ Product ] (optional)\n}\n\n@enduml\n&quot;,&quot;format&quot;:&quot;svg&quot;}" id="T1-XE717wi-3wMaK3hyC-15">
          <mxCell style="shape=image;noLabel=1;verticalAlign=top;aspect=fixed;imageAspect=0;image=data:image/svg+xml,PHN2ZyB4bWxucz0iaHR0cDovL3d3dy53My5vcmcvMjAwMC9zdmciIHhtbG5zOnhsaW5rPSJodHRwOi8vd3d3LnczLm9yZy8xOTk5L3hsaW5rIiBjb250ZW50U3R5bGVUeXBlPSJ0ZXh0L2NzcyIgZGF0YS1kaWFncmFtLXR5cGU9IkNMQVNTIiBoZWlnaHQ9IjE0M3B4IiBwcmVzZXJ2ZUFzcGVjdFJhdGlvPSJub25lIiBzdHlsZT0id2lkdGg6Mjk5cHg7aGVpZ2h0OjE0M3B4O2JhY2tncm91bmQ6I0ZGRkZGRjsiIHZlcnNpb249IjEuMSIgdmlld0JveD0iMCAwIDI5OSAxNDMiIHdpZHRoPSIyOTlweCIgem9vbUFuZFBhbj0ibWFnbmlmeSI+PGRlZnMvPjxnPjwhLS1jbGFzcyBTZWN0aW9uLS0+PGcgY2xhc3M9ImVudGl0eSIgZGF0YS1lbnRpdHk9IlNlY3Rpb24iIGRhdGEtc291cmNlLWxpbmU9IjEiIGRhdGEtdWlkPSJlbnQwMDAyIiBpZD0iZW50aXR5X1NlY3Rpb24iPjxyZWN0IGZpbGw9IiNGMUYxRjEiIGhlaWdodD0iMTIyLjkyMTkiIHJ4PSIyLjUiIHJ5PSIyLjUiIHN0eWxlPSJzdHJva2U6IzE4MTgxODtzdHJva2Utd2lkdGg6MC41OyIgd2lkdGg9IjI3OCIgeD0iNyIgeT0iNyIvPjxlbGxpcHNlIGN4PSIxMTcuMjUiIGN5PSIyMyIgZmlsbD0iI0FERDFCMiIgcng9IjExIiByeT0iMTEiIHN0eWxlPSJzdHJva2U6IzE4MTgxODtzdHJva2Utd2lkdGg6MTsiLz48cGF0aCBkPSJNMTE0Ljg3NSwyNy4yNSBMMTE0Ljg3NSwyOSBMMTE5LjgxMjUsMjkgTDExOS44MTI1LDI3LjI1IEwxMTQuODc1LDI3LjI1IFogTTExNS41NjI1LDI3LjkzNzUgUTExNS41NjI1LDI3LjkzNzUgMTE1LjU2MjUsMTguNzUgTDExMy44MTI1LDE4Ljc1IFExMTMuODEyNSwxOC43NSAxMTMuODEyNSwyNy45Mzc1IEwxMTUuNTYyNSwyNy45Mzc1IFogTTExOS4xMjUsMjcuOTM3NSBMMTIwLjg3NSwyNy45Mzc1IFExMjAuODc1LDI3LjkzNzUgMTIwLjg3NSwyNS4xMjUgTDExOS4xMjUsMjUuMTI1IFExMTkuMTI1LDI1LjEyNSAxMTkuMTI1LDI3LjkzNzUgWiBNMTE5LjEyNSwxOC43NSBRMTE5LjEyNSwxOC43NSAxMTkuMTI1LDIxLjU2MjUgTDEyMC44NzUsMjEuNTYyNSBRMTIwLjg3NSwyMS41NjI1IDEyMC44NzUsMTguNzUgTDExOS4xMjUsMTguNzUgWiBNMTE0Ljg3NSwxOS40Mzc1IEwxMTkuODEyNSwxOS40Mzc1IEwxMTkuODEyNSwxNy42ODc1IEwxMTQuODc1LDE3LjY4NzUgTDExNC44NzUsMTkuNDM3NSBaICIgZmlsbD0iIzAwMDAwMCIvPjx0ZXh0IGZpbGw9IiMwMDAwMDAiIGZvbnQtZmFtaWx5PSJzYW5zLXNlcmlmIiBmb250LXNpemU9IjE0IiBsZW5ndGhBZGp1c3Q9InNwYWNpbmciIHRleHRMZW5ndGg9IjQ5IiB4PSIxMzcuNzUiIHk9IjI4Ljc0MjIiPlNlY3Rpb248L3RleHQ+PGxpbmUgc3R5bGU9InN0cm9rZTojMTgxODE4O3N0cm9rZS13aWR0aDowLjU7IiB4MT0iOCIgeDI9IjI4NCIgeTE9IjM5IiB5Mj0iMzkiLz48dGV4dCBmaWxsPSIjMDAwMDAwIiBmb250LWZhbWlseT0ic2Fucy1zZXJpZiIgZm9udC1zaXplPSIxNCIgbGVuZ3RoQWRqdXN0PSJzcGFjaW5nIiB0ZXh0TGVuZ3RoPSI3MCIgeD0iMTMiIHk9IjU2LjIzNDQiPmlkOiBzdHJpbmc8L3RleHQ+PHRleHQgZmlsbD0iIzAwMDAwMCIgZm9udC1mYW1pbHk9InNhbnMtc2VyaWYiIGZvbnQtc2l6ZT0iMTQiIGxlbmd0aEFkanVzdD0ic3BhY2luZyIgdGV4dExlbmd0aD0iODQiIHg9IjEzIiB5PSI3MS4yMTg4Ij5uYW1lOiBzdHJpbmc8L3RleHQ+PHRleHQgZmlsbD0iIzAwMDAwMCIgZm9udC1mYW1pbHk9InNhbnMtc2VyaWYiIGZvbnQtc2l6ZT0iMTQiIGxlbmd0aEFkanVzdD0ic3BhY2luZyIgdGV4dExlbmd0aD0iNzciIHg9IjEzIiB5PSI4Ni4yMDMxIj5pbWc6IHN0cmluZzwvdGV4dD48dGV4dCBmaWxsPSIjMDAwMDAwIiBmb250LWZhbWlseT0ic2Fucy1zZXJpZiIgZm9udC1zaXplPSIxNCIgbGVuZ3RoQWRqdXN0PSJzcGFjaW5nIiB0ZXh0TGVuZ3RoPSIxMTkiIHg9IjEzIiB5PSIxMDEuMTg3NSI+cGFyZW50X2lkOiBzdHJpbmc8L3RleHQ+PGxpbmUgc3R5bGU9InN0cm9rZTojMTgxODE4O3N0cm9rZS13aWR0aDowLjU7IiB4MT0iOCIgeDI9IjI4NCIgeTE9IjEwNi45Mzc1IiB5Mj0iMTA2LjkzNzUiLz48dGV4dCBmaWxsPSIjMDAwMDAwIiBmb250LWZhbWlseT0ic2Fucy1zZXJpZiIgZm9udC1zaXplPSIxNCIgbGVuZ3RoQWRqdXN0PSJzcGFjaW5nIiB0ZXh0TGVuZ3RoPSIyNjYiIHg9IjEzIiB5PSIxMjQuMTcxOSI+cHJvZHVjdHM6IGFycmF5IFsgUHJvZHVjdCBdIChvcHRpb25hbCk8L3RleHQ+PC9nPjwhLS1TUkM9W0l5djlCMnZNMjR2REJpZENwckVldmI5R280b25LWVdrQVNoQ0ltVG95WDlwS3Y2dWNSZGZJQm8ybkFCS2w5OXU1MHE1SFZhZmZTYWJuTE9BWUtMNVlQS0FxR2UxNDE2NU0wTURfMEFHQk9hdmNib3IwMDAwXS0tPjwvZz48L3N2Zz4=;" vertex="1" parent="WIyWlLk6GJQsqaUBKTNV-1">
            <mxGeometry x="226" y="910" width="299" height="143" as="geometry" />
          </mxCell>
        </UserObject>
        <UserObject label="" plantUmlData="{&quot;data&quot;:&quot;@startuml\n\nclass Website {\n  login: string\n  password: string\n  recovery_email: string\n}\n\n@enduml\n&quot;,&quot;format&quot;:&quot;svg&quot;}" id="T1-XE717wi-3wMaK3hyC-16">
          <mxCell style="shape=image;noLabel=1;verticalAlign=top;aspect=fixed;imageAspect=0;image=data:image/svg+xml,PHN2ZyB4bWxucz0iaHR0cDovL3d3dy53My5vcmcvMjAwMC9zdmciIHhtbG5zOnhsaW5rPSJodHRwOi8vd3d3LnczLm9yZy8xOTk5L3hsaW5rIiBjb250ZW50U3R5bGVUeXBlPSJ0ZXh0L2NzcyIgZGF0YS1kaWFncmFtLXR5cGU9IkNMQVNTIiBoZWlnaHQ9IjExM3B4IiBwcmVzZXJ2ZUFzcGVjdFJhdGlvPSJub25lIiBzdHlsZT0id2lkdGg6MTg3cHg7aGVpZ2h0OjExM3B4O2JhY2tncm91bmQ6I0ZGRkZGRjsiIHZlcnNpb249IjEuMSIgdmlld0JveD0iMCAwIDE4NyAxMTMiIHdpZHRoPSIxODdweCIgem9vbUFuZFBhbj0ibWFnbmlmeSI+PGRlZnMvPjxnPjwhLS1jbGFzcyBXZWJzaXRlLS0+PGcgY2xhc3M9ImVudGl0eSIgZGF0YS1lbnRpdHk9IldlYnNpdGUiIGRhdGEtc291cmNlLWxpbmU9IjEiIGRhdGEtdWlkPSJlbnQwMDAyIiBpZD0iZW50aXR5X1dlYnNpdGUiPjxyZWN0IGZpbGw9IiNGMUYxRjEiIGhlaWdodD0iOTIuOTUzMSIgcng9IjIuNSIgcnk9IjIuNSIgc3R5bGU9InN0cm9rZTojMTgxODE4O3N0cm9rZS13aWR0aDowLjU7IiB3aWR0aD0iMTY2IiB4PSI3IiB5PSI3Ii8+PGVsbGlwc2UgY3g9IjYxLjI1IiBjeT0iMjMiIGZpbGw9IiNBREQxQjIiIHJ4PSIxMSIgcnk9IjExIiBzdHlsZT0ic3Ryb2tlOiMxODE4MTg7c3Ryb2tlLXdpZHRoOjE7Ii8+PHBhdGggZD0iTTU4Ljg3NSwyNy4yNSBMNTguODc1LDI5IEw2My44MTI1LDI5IEw2My44MTI1LDI3LjI1IEw1OC44NzUsMjcuMjUgWiBNNTkuNTYyNSwyNy45Mzc1IFE1OS41NjI1LDI3LjkzNzUgNTkuNTYyNSwxOC43NSBMNTcuODEyNSwxOC43NSBRNTcuODEyNSwxOC43NSA1Ny44MTI1LDI3LjkzNzUgTDU5LjU2MjUsMjcuOTM3NSBaIE02My4xMjUsMjcuOTM3NSBMNjQuODc1LDI3LjkzNzUgUTY0Ljg3NSwyNy45Mzc1IDY0Ljg3NSwyNS4xMjUgTDYzLjEyNSwyNS4xMjUgUTYzLjEyNSwyNS4xMjUgNjMuMTI1LDI3LjkzNzUgWiBNNjMuMTI1LDE4Ljc1IFE2My4xMjUsMTguNzUgNjMuMTI1LDIxLjU2MjUgTDY0Ljg3NSwyMS41NjI1IFE2NC44NzUsMjEuNTYyNSA2NC44NzUsMTguNzUgTDYzLjEyNSwxOC43NSBaIE01OC44NzUsMTkuNDM3NSBMNjMuODEyNSwxOS40Mzc1IEw2My44MTI1LDE3LjY4NzUgTDU4Ljg3NSwxNy42ODc1IEw1OC44NzUsMTkuNDM3NSBaICIgZmlsbD0iIzAwMDAwMCIvPjx0ZXh0IGZpbGw9IiMwMDAwMDAiIGZvbnQtZmFtaWx5PSJzYW5zLXNlcmlmIiBmb250LXNpemU9IjE0IiBsZW5ndGhBZGp1c3Q9InNwYWNpbmciIHRleHRMZW5ndGg9IjQ5IiB4PSI4MS43NSIgeT0iMjguNzQyMiI+V2Vic2l0ZTwvdGV4dD48bGluZSBzdHlsZT0ic3Ryb2tlOiMxODE4MTg7c3Ryb2tlLXdpZHRoOjAuNTsiIHgxPSI4IiB4Mj0iMTcyIiB5MT0iMzkiIHkyPSIzOSIvPjx0ZXh0IGZpbGw9IiMwMDAwMDAiIGZvbnQtZmFtaWx5PSJzYW5zLXNlcmlmIiBmb250LXNpemU9IjE0IiBsZW5ndGhBZGp1c3Q9InNwYWNpbmciIHRleHRMZW5ndGg9IjkxIiB4PSIxMyIgeT0iNTYuMjM0NCI+bG9naW46IHN0cmluZzwvdGV4dD48dGV4dCBmaWxsPSIjMDAwMDAwIiBmb250LWZhbWlseT0ic2Fucy1zZXJpZiIgZm9udC1zaXplPSIxNCIgbGVuZ3RoQWRqdXN0PSJzcGFjaW5nIiB0ZXh0TGVuZ3RoPSIxMTIiIHg9IjEzIiB5PSI3MS4yMTg4Ij5wYXNzd29yZDogc3RyaW5nPC90ZXh0Pjx0ZXh0IGZpbGw9IiMwMDAwMDAiIGZvbnQtZmFtaWx5PSJzYW5zLXNlcmlmIiBmb250LXNpemU9IjE0IiBsZW5ndGhBZGp1c3Q9InNwYWNpbmciIHRleHRMZW5ndGg9IjE1NCIgeD0iMTMiIHk9Ijg2LjIwMzEiPnJlY292ZXJ5X2VtYWlsOiBzdHJpbmc8L3RleHQ+PGxpbmUgc3R5bGU9InN0cm9rZTojMTgxODE4O3N0cm9rZS13aWR0aDowLjU7IiB4MT0iOCIgeDI9IjE3MiIgeTE9IjkxLjk1MzEiIHkyPSI5MS45NTMxIi8+PC9nPjwhLS1TUkM9W0l5djlCMnZNMjR6REFpdWlJTE1ldmI5R29DYkZweW9wS1lXa0FTaENJbVZvMnUwQW9sRUJLZjI0WWJBSnl5aklZb2haS3RDSkN0Rlc0aEswXS0tPjwvZz48L3N2Zz4=;" vertex="1" parent="WIyWlLk6GJQsqaUBKTNV-1">
            <mxGeometry x="563" y="960" width="187" height="113" as="geometry" />
          </mxCell>
        </UserObject>
        <UserObject label="" plantUmlData="{&quot;data&quot;:&quot;@startuml\n\nclass Delay_detail {\n  id: string\n  name: string\n  delay: time\n}\n\n@enduml\n&quot;,&quot;format&quot;:&quot;svg&quot;}" id="T1-XE717wi-3wMaK3hyC-17">
          <mxCell style="shape=image;noLabel=1;verticalAlign=top;aspect=fixed;imageAspect=0;image=data:image/svg+xml,PHN2ZyB4bWxucz0iaHR0cDovL3d3dy53My5vcmcvMjAwMC9zdmciIHhtbG5zOnhsaW5rPSJodHRwOi8vd3d3LnczLm9yZy8xOTk5L3hsaW5rIiBjb250ZW50U3R5bGVUeXBlPSJ0ZXh0L2NzcyIgZGF0YS1kaWFncmFtLXR5cGU9IkNMQVNTIiBoZWlnaHQ9IjExM3B4IiBwcmVzZXJ2ZUFzcGVjdFJhdGlvPSJub25lIiBzdHlsZT0id2lkdGg6MTM3cHg7aGVpZ2h0OjExM3B4O2JhY2tncm91bmQ6I0ZGRkZGRjsiIHZlcnNpb249IjEuMSIgdmlld0JveD0iMCAwIDEzNyAxMTMiIHdpZHRoPSIxMzdweCIgem9vbUFuZFBhbj0ibWFnbmlmeSI+PGRlZnMvPjxnPjwhLS1jbGFzcyBEZWxheV9kZXRhaWwtLT48ZyBjbGFzcz0iZW50aXR5IiBkYXRhLWVudGl0eT0iRGVsYXlfZGV0YWlsIiBkYXRhLXNvdXJjZS1saW5lPSIxIiBkYXRhLXVpZD0iZW50MDAwMiIgaWQ9ImVudGl0eV9EZWxheV9kZXRhaWwiPjxyZWN0IGZpbGw9IiNGMUYxRjEiIGhlaWdodD0iOTIuOTUzMSIgcng9IjIuNSIgcnk9IjIuNSIgc3R5bGU9InN0cm9rZTojMTgxODE4O3N0cm9rZS13aWR0aDowLjU7IiB3aWR0aD0iMTE2IiB4PSI3IiB5PSI3Ii8+PGVsbGlwc2UgY3g9IjIyIiBjeT0iMjMiIGZpbGw9IiNBREQxQjIiIHJ4PSIxMSIgcnk9IjExIiBzdHlsZT0ic3Ryb2tlOiMxODE4MTg7c3Ryb2tlLXdpZHRoOjE7Ii8+PHBhdGggZD0iTTE5LjYyNSwyNy4yNSBMMTkuNjI1LDI5IEwyNC41NjI1LDI5IEwyNC41NjI1LDI3LjI1IEwxOS42MjUsMjcuMjUgWiBNMjAuMzEyNSwyNy45Mzc1IFEyMC4zMTI1LDI3LjkzNzUgMjAuMzEyNSwxOC43NSBMMTguNTYyNSwxOC43NSBRMTguNTYyNSwxOC43NSAxOC41NjI1LDI3LjkzNzUgTDIwLjMxMjUsMjcuOTM3NSBaIE0yMy44NzUsMjcuOTM3NSBMMjUuNjI1LDI3LjkzNzUgUTI1LjYyNSwyNy45Mzc1IDI1LjYyNSwyNS4xMjUgTDIzLjg3NSwyNS4xMjUgUTIzLjg3NSwyNS4xMjUgMjMuODc1LDI3LjkzNzUgWiBNMjMuODc1LDE4Ljc1IFEyMy44NzUsMTguNzUgMjMuODc1LDIxLjU2MjUgTDI1LjYyNSwyMS41NjI1IFEyNS42MjUsMjEuNTYyNSAyNS42MjUsMTguNzUgTDIzLjg3NSwxOC43NSBaIE0xOS42MjUsMTkuNDM3NSBMMjQuNTYyNSwxOS40Mzc1IEwyNC41NjI1LDE3LjY4NzUgTDE5LjYyNSwxNy42ODc1IEwxOS42MjUsMTkuNDM3NSBaICIgZmlsbD0iIzAwMDAwMCIvPjx0ZXh0IGZpbGw9IiMwMDAwMDAiIGZvbnQtZmFtaWx5PSJzYW5zLXNlcmlmIiBmb250LXNpemU9IjE0IiBsZW5ndGhBZGp1c3Q9InNwYWNpbmciIHRleHRMZW5ndGg9Ijg0IiB4PSIzNiIgeT0iMjguNzQyMiI+RGVsYXlfZGV0YWlsPC90ZXh0PjxsaW5lIHN0eWxlPSJzdHJva2U6IzE4MTgxODtzdHJva2Utd2lkdGg6MC41OyIgeDE9IjgiIHgyPSIxMjIiIHkxPSIzOSIgeTI9IjM5Ii8+PHRleHQgZmlsbD0iIzAwMDAwMCIgZm9udC1mYW1pbHk9InNhbnMtc2VyaWYiIGZvbnQtc2l6ZT0iMTQiIGxlbmd0aEFkanVzdD0ic3BhY2luZyIgdGV4dExlbmd0aD0iNzAiIHg9IjEzIiB5PSI1Ni4yMzQ0Ij5pZDogc3RyaW5nPC90ZXh0Pjx0ZXh0IGZpbGw9IiMwMDAwMDAiIGZvbnQtZmFtaWx5PSJzYW5zLXNlcmlmIiBmb250LXNpemU9IjE0IiBsZW5ndGhBZGp1c3Q9InNwYWNpbmciIHRleHRMZW5ndGg9Ijg0IiB4PSIxMyIgeT0iNzEuMjE4OCI+bmFtZTogc3RyaW5nPC90ZXh0Pjx0ZXh0IGZpbGw9IiMwMDAwMDAiIGZvbnQtZmFtaWx5PSJzYW5zLXNlcmlmIiBmb250LXNpemU9IjE0IiBsZW5ndGhBZGp1c3Q9InNwYWNpbmciIHRleHRMZW5ndGg9Ijc3IiB4PSIxMyIgeT0iODYuMjAzMSI+ZGVsYXk6IHRpbWU8L3RleHQ+PGxpbmUgc3R5bGU9InN0cm9rZTojMTgxODE4O3N0cm9rZS13aWR0aDowLjU7IiB4MT0iOCIgeDI9IjEyMiIgeTE9IjkxLjk1MzEiIHkyPSI5MS45NTMxIi8+PC9nPjwhLS1TUkM9W0l5djlCMnZNUzRkRElRb0NKcWFqSVNwQ0tRWmNLYjM4SkI1SUEydWZvaW5CMXRCbzRkREphUldmOENMTTJZTVBrUWJTakcwMF0tLT48L2c+PC9zdmc+;" vertex="1" parent="WIyWlLk6GJQsqaUBKTNV-1">
            <mxGeometry x="633" y="786" width="137" height="113" as="geometry" />
          </mxCell>
        </UserObject>
        <mxCell id="T1-XE717wi-3wMaK3hyC-18" value="" style="endArrow=classic;html=1;rounded=0;exitX=0.75;exitY=1;exitDx=0;exitDy=0;entryX=0.5;entryY=0;entryDx=0;entryDy=0;" edge="1" parent="WIyWlLk6GJQsqaUBKTNV-1" source="T1-XE717wi-3wMaK3hyC-4" target="T1-XE717wi-3wMaK3hyC-6">
          <mxGeometry width="50" height="50" relative="1" as="geometry">
            <mxPoint x="583" y="450" as="sourcePoint" />
            <mxPoint x="633" y="400" as="targetPoint" />
          </mxGeometry>
        </mxCell>
        <mxCell id="T1-XE717wi-3wMaK3hyC-19" value="" style="endArrow=classic;html=1;rounded=0;exitX=0.5;exitY=1;exitDx=0;exitDy=0;entryX=0.5;entryY=0;entryDx=0;entryDy=0;" edge="1" parent="WIyWlLk6GJQsqaUBKTNV-1" source="T1-XE717wi-3wMaK3hyC-4" target="T1-XE717wi-3wMaK3hyC-7">
          <mxGeometry width="50" height="50" relative="1" as="geometry">
            <mxPoint x="463" y="440" as="sourcePoint" />
            <mxPoint x="587.0000000000005" y="620" as="targetPoint" />
          </mxGeometry>
        </mxCell>
        <mxCell id="T1-XE717wi-3wMaK3hyC-20" value="" style="endArrow=classic;html=1;rounded=0;exitX=0.25;exitY=1;exitDx=0;exitDy=0;entryX=0.75;entryY=0;entryDx=0;entryDy=0;" edge="1" parent="WIyWlLk6GJQsqaUBKTNV-1" source="T1-XE717wi-3wMaK3hyC-4" target="T1-XE717wi-3wMaK3hyC-9">
          <mxGeometry width="50" height="50" relative="1" as="geometry">
            <mxPoint x="423" y="460" as="sourcePoint" />
            <mxPoint x="472" y="662" as="targetPoint" />
          </mxGeometry>
        </mxCell>
        <mxCell id="T1-XE717wi-3wMaK3hyC-21" value="" style="endArrow=classic;html=1;rounded=0;exitX=0;exitY=1;exitDx=0;exitDy=0;entryX=1;entryY=0;entryDx=0;entryDy=0;" edge="1" parent="WIyWlLk6GJQsqaUBKTNV-1" source="T1-XE717wi-3wMaK3hyC-4" target="T1-XE717wi-3wMaK3hyC-5">
          <mxGeometry width="50" height="50" relative="1" as="geometry">
            <mxPoint x="385" y="420" as="sourcePoint" />
            <mxPoint x="203" y="597" as="targetPoint" />
          </mxGeometry>
        </mxCell>
        <mxCell id="T1-XE717wi-3wMaK3hyC-22" value="" style="endArrow=classic;html=1;rounded=0;exitX=0.5;exitY=1;exitDx=0;exitDy=0;entryX=0.5;entryY=0;entryDx=0;entryDy=0;" edge="1" parent="WIyWlLk6GJQsqaUBKTNV-1" source="T1-XE717wi-3wMaK3hyC-9" target="T1-XE717wi-3wMaK3hyC-15">
          <mxGeometry width="50" height="50" relative="1" as="geometry">
            <mxPoint x="535" y="540" as="sourcePoint" />
            <mxPoint x="353" y="717" as="targetPoint" />
          </mxGeometry>
        </mxCell>
        <mxCell id="T1-XE717wi-3wMaK3hyC-23" value="" style="endArrow=classic;html=1;rounded=0;exitX=0.75;exitY=1;exitDx=0;exitDy=0;entryX=0.5;entryY=0;entryDx=0;entryDy=0;" edge="1" parent="WIyWlLk6GJQsqaUBKTNV-1" source="T1-XE717wi-3wMaK3hyC-9" target="T1-XE717wi-3wMaK3hyC-10">
          <mxGeometry width="50" height="50" relative="1" as="geometry">
            <mxPoint x="273" y="810" as="sourcePoint" />
            <mxPoint x="303" y="820" as="targetPoint" />
          </mxGeometry>
        </mxCell>
        <mxCell id="T1-XE717wi-3wMaK3hyC-24" value="" style="endArrow=classic;html=1;rounded=0;exitX=0.25;exitY=1;exitDx=0;exitDy=0;entryX=0.5;entryY=0;entryDx=0;entryDy=0;" edge="1" parent="WIyWlLk6GJQsqaUBKTNV-1" source="T1-XE717wi-3wMaK3hyC-9" target="T1-XE717wi-3wMaK3hyC-11">
          <mxGeometry width="50" height="50" relative="1" as="geometry">
            <mxPoint x="184" y="781" as="sourcePoint" />
            <mxPoint x="373" y="933" as="targetPoint" />
          </mxGeometry>
        </mxCell>
        <mxCell id="T1-XE717wi-3wMaK3hyC-25" value="" style="endArrow=classic;html=1;rounded=0;exitX=1;exitY=0.5;exitDx=0;exitDy=0;entryX=0;entryY=0.5;entryDx=0;entryDy=0;" edge="1" parent="WIyWlLk6GJQsqaUBKTNV-1" source="T1-XE717wi-3wMaK3hyC-3" target="T1-XE717wi-3wMaK3hyC-14">
          <mxGeometry width="50" height="50" relative="1" as="geometry">
            <mxPoint x="1013" y="560" as="sourcePoint" />
            <mxPoint x="1063" y="510" as="targetPoint" />
          </mxGeometry>
        </mxCell>
        <mxCell id="T1-XE717wi-3wMaK3hyC-26" value="" style="endArrow=classic;html=1;rounded=0;entryX=0.5;entryY=1;entryDx=0;entryDy=0;exitX=0.5;exitY=0;exitDx=0;exitDy=0;" edge="1" parent="WIyWlLk6GJQsqaUBKTNV-1" source="T1-XE717wi-3wMaK3hyC-4" target="T1-XE717wi-3wMaK3hyC-14">
          <mxGeometry width="50" height="50" relative="1" as="geometry">
            <mxPoint x="719" y="355" as="sourcePoint" />
            <mxPoint x="913" y="560" as="targetPoint" />
          </mxGeometry>
        </mxCell>
        <UserObject label="" plantUmlData="{&quot;data&quot;:&quot;@startuml\n\nclass Order_history {\n  customers_id: array [ Customer ]\n  orders_id: array [ Order ]\n}\n\n@enduml\n&quot;,&quot;format&quot;:&quot;svg&quot;}" id="T1-XE717wi-3wMaK3hyC-27">
          <mxCell style="shape=image;noLabel=1;verticalAlign=top;aspect=fixed;imageAspect=0;image=data:image/svg+xml,PHN2ZyB4bWxucz0iaHR0cDovL3d3dy53My5vcmcvMjAwMC9zdmciIHhtbG5zOnhsaW5rPSJodHRwOi8vd3d3LnczLm9yZy8xOTk5L3hsaW5rIiBjb250ZW50U3R5bGVUeXBlPSJ0ZXh0L2NzcyIgZGF0YS1kaWFncmFtLXR5cGU9IkNMQVNTIiBoZWlnaHQ9Ijk4cHgiIHByZXNlcnZlQXNwZWN0UmF0aW89Im5vbmUiIHN0eWxlPSJ3aWR0aDoyNTdweDtoZWlnaHQ6OThweDtiYWNrZ3JvdW5kOiNGRkZGRkY7IiB2ZXJzaW9uPSIxLjEiIHZpZXdCb3g9IjAgMCAyNTcgOTgiIHdpZHRoPSIyNTdweCIgem9vbUFuZFBhbj0ibWFnbmlmeSI+PGRlZnMvPjxnPjwhLS1jbGFzcyBPcmRlcl9oaXN0b3J5LS0+PGcgY2xhc3M9ImVudGl0eSIgZGF0YS1lbnRpdHk9Ik9yZGVyX2hpc3RvcnkiIGRhdGEtc291cmNlLWxpbmU9IjEiIGRhdGEtdWlkPSJlbnQwMDAyIiBpZD0iZW50aXR5X09yZGVyX2hpc3RvcnkiPjxyZWN0IGZpbGw9IiNGMUYxRjEiIGhlaWdodD0iNzcuOTY4OCIgcng9IjIuNSIgcnk9IjIuNSIgc3R5bGU9InN0cm9rZTojMTgxODE4O3N0cm9rZS13aWR0aDowLjU7IiB3aWR0aD0iMjM2IiB4PSI3IiB5PSI3Ii8+PGVsbGlwc2UgY3g9Ijc1LjI1IiBjeT0iMjMiIGZpbGw9IiNBREQxQjIiIHJ4PSIxMSIgcnk9IjExIiBzdHlsZT0ic3Ryb2tlOiMxODE4MTg7c3Ryb2tlLXdpZHRoOjE7Ii8+PHBhdGggZD0iTTcyLjg3NSwyNy4yNSBMNzIuODc1LDI5IEw3Ny44MTI1LDI5IEw3Ny44MTI1LDI3LjI1IEw3Mi44NzUsMjcuMjUgWiBNNzMuNTYyNSwyNy45Mzc1IFE3My41NjI1LDI3LjkzNzUgNzMuNTYyNSwxOC43NSBMNzEuODEyNSwxOC43NSBRNzEuODEyNSwxOC43NSA3MS44MTI1LDI3LjkzNzUgTDczLjU2MjUsMjcuOTM3NSBaIE03Ny4xMjUsMjcuOTM3NSBMNzguODc1LDI3LjkzNzUgUTc4Ljg3NSwyNy45Mzc1IDc4Ljg3NSwyNS4xMjUgTDc3LjEyNSwyNS4xMjUgUTc3LjEyNSwyNS4xMjUgNzcuMTI1LDI3LjkzNzUgWiBNNzcuMTI1LDE4Ljc1IFE3Ny4xMjUsMTguNzUgNzcuMTI1LDIxLjU2MjUgTDc4Ljg3NSwyMS41NjI1IFE3OC44NzUsMjEuNTYyNSA3OC44NzUsMTguNzUgTDc3LjEyNSwxOC43NSBaIE03Mi44NzUsMTkuNDM3NSBMNzcuODEyNSwxOS40Mzc1IEw3Ny44MTI1LDE3LjY4NzUgTDcyLjg3NSwxNy42ODc1IEw3Mi44NzUsMTkuNDM3NSBaICIgZmlsbD0iIzAwMDAwMCIvPjx0ZXh0IGZpbGw9IiMwMDAwMDAiIGZvbnQtZmFtaWx5PSJzYW5zLXNlcmlmIiBmb250LXNpemU9IjE0IiBsZW5ndGhBZGp1c3Q9InNwYWNpbmciIHRleHRMZW5ndGg9IjkxIiB4PSI5NS43NSIgeT0iMjguNzQyMiI+T3JkZXJfaGlzdG9yeTwvdGV4dD48bGluZSBzdHlsZT0ic3Ryb2tlOiMxODE4MTg7c3Ryb2tlLXdpZHRoOjAuNTsiIHgxPSI4IiB4Mj0iMjQyIiB5MT0iMzkiIHkyPSIzOSIvPjx0ZXh0IGZpbGw9IiMwMDAwMDAiIGZvbnQtZmFtaWx5PSJzYW5zLXNlcmlmIiBmb250LXNpemU9IjE0IiBsZW5ndGhBZGp1c3Q9InNwYWNpbmciIHRleHRMZW5ndGg9IjIyNCIgeD0iMTMiIHk9IjU2LjIzNDQiPmN1c3RvbWVyc19pZDogYXJyYXkgWyBDdXN0b21lciBdPC90ZXh0Pjx0ZXh0IGZpbGw9IiMwMDAwMDAiIGZvbnQtZmFtaWx5PSJzYW5zLXNlcmlmIiBmb250LXNpemU9IjE0IiBsZW5ndGhBZGp1c3Q9InNwYWNpbmciIHRleHRMZW5ndGg9IjE4MiIgeD0iMTMiIHk9IjcxLjIxODgiPm9yZGVyc19pZDogYXJyYXkgWyBPcmRlciBdPC90ZXh0PjxsaW5lIHN0eWxlPSJzdHJva2U6IzE4MTgxODtzdHJva2Utd2lkdGg6MC41OyIgeDE9IjgiIHgyPSIyNDIiIHkxPSI3Ni45Njg4IiB5Mj0iNzYuOTY4OCIvPjwvZz48IS0tU1JDPVtJeXY5QjJ2TXkyekFJSXNBcHlXaUJpYWxnYklldmI5R0kydTVpZERKWXVoWkNyRWk1MUFCWVg4aDVROExkQTZZMmg1MDlWYVdKUVpvTzdFMGFoSzBdLS0+PC9nPjwvc3ZnPg==;" vertex="1" parent="WIyWlLk6GJQsqaUBKTNV-1">
            <mxGeometry x="40" y="313.43" width="257" height="98" as="geometry" />
          </mxCell>
        </UserObject>
        <mxCell id="T1-XE717wi-3wMaK3hyC-28" value="" style="endArrow=classic;html=1;rounded=0;exitX=0;exitY=1;exitDx=0;exitDy=0;entryX=0.5;entryY=0;entryDx=0;entryDy=0;" edge="1" parent="WIyWlLk6GJQsqaUBKTNV-1" source="T1-XE717wi-3wMaK3hyC-3" target="T1-XE717wi-3wMaK3hyC-27">
          <mxGeometry width="50" height="50" relative="1" as="geometry">
            <mxPoint x="236" y="261" as="sourcePoint" />
            <mxPoint x="423" y="233" as="targetPoint" />
          </mxGeometry>
        </mxCell>
        <mxCell id="T1-XE717wi-3wMaK3hyC-30" value="" style="endArrow=classic;html=1;rounded=0;entryX=1;entryY=0.5;entryDx=0;entryDy=0;exitX=0;exitY=0.5;exitDx=0;exitDy=0;" edge="1" parent="WIyWlLk6GJQsqaUBKTNV-1" source="T1-XE717wi-3wMaK3hyC-4" target="T1-XE717wi-3wMaK3hyC-27">
          <mxGeometry width="50" height="50" relative="1" as="geometry">
            <mxPoint x="243" y="280" as="sourcePoint" />
            <mxPoint x="179" y="323" as="targetPoint" />
          </mxGeometry>
        </mxCell>
        <UserObject label="" plantUmlData="{&quot;data&quot;:&quot;@startuml\n\nclass Autorization_sended {\n  customer_id: string\n  sended_time: time\n}\n\n@enduml\n&quot;,&quot;format&quot;:&quot;svg&quot;}" id="T1-XE717wi-3wMaK3hyC-31">
          <mxCell style="shape=image;noLabel=1;verticalAlign=top;aspect=fixed;imageAspect=0;image=data:image/svg+xml,PHN2ZyB4bWxucz0iaHR0cDovL3d3dy53My5vcmcvMjAwMC9zdmciIHhtbG5zOnhsaW5rPSJodHRwOi8vd3d3LnczLm9yZy8xOTk5L3hsaW5rIiBjb250ZW50U3R5bGVUeXBlPSJ0ZXh0L2NzcyIgZGF0YS1kaWFncmFtLXR5cGU9IkNMQVNTIiBoZWlnaHQ9Ijk4cHgiIHByZXNlcnZlQXNwZWN0UmF0aW89Im5vbmUiIHN0eWxlPSJ3aWR0aDoxODZweDtoZWlnaHQ6OThweDtiYWNrZ3JvdW5kOiNGRkZGRkY7IiB2ZXJzaW9uPSIxLjEiIHZpZXdCb3g9IjAgMCAxODYgOTgiIHdpZHRoPSIxODZweCIgem9vbUFuZFBhbj0ibWFnbmlmeSI+PGRlZnMvPjxnPjwhLS1jbGFzcyBBdXRvcml6YXRpb25fc2VuZGVkLS0+PGcgY2xhc3M9ImVudGl0eSIgZGF0YS1lbnRpdHk9IkF1dG9yaXphdGlvbl9zZW5kZWQiIGRhdGEtc291cmNlLWxpbmU9IjEiIGRhdGEtdWlkPSJlbnQwMDAyIiBpZD0iZW50aXR5X0F1dG9yaXphdGlvbl9zZW5kZWQiPjxyZWN0IGZpbGw9IiNGMUYxRjEiIGhlaWdodD0iNzcuOTY4OCIgcng9IjIuNSIgcnk9IjIuNSIgc3R5bGU9InN0cm9rZTojMTgxODE4O3N0cm9rZS13aWR0aDowLjU7IiB3aWR0aD0iMTY1IiB4PSI3IiB5PSI3Ii8+PGVsbGlwc2UgY3g9IjIyIiBjeT0iMjMiIGZpbGw9IiNBREQxQjIiIHJ4PSIxMSIgcnk9IjExIiBzdHlsZT0ic3Ryb2tlOiMxODE4MTg7c3Ryb2tlLXdpZHRoOjE7Ii8+PHBhdGggZD0iTTE5LjYyNSwyNy4yNSBMMTkuNjI1LDI5IEwyNC41NjI1LDI5IEwyNC41NjI1LDI3LjI1IEwxOS42MjUsMjcuMjUgWiBNMjAuMzEyNSwyNy45Mzc1IFEyMC4zMTI1LDI3LjkzNzUgMjAuMzEyNSwxOC43NSBMMTguNTYyNSwxOC43NSBRMTguNTYyNSwxOC43NSAxOC41NjI1LDI3LjkzNzUgTDIwLjMxMjUsMjcuOTM3NSBaIE0yMy44NzUsMjcuOTM3NSBMMjUuNjI1LDI3LjkzNzUgUTI1LjYyNSwyNy45Mzc1IDI1LjYyNSwyNS4xMjUgTDIzLjg3NSwyNS4xMjUgUTIzLjg3NSwyNS4xMjUgMjMuODc1LDI3LjkzNzUgWiBNMjMuODc1LDE4Ljc1IFEyMy44NzUsMTguNzUgMjMuODc1LDIxLjU2MjUgTDI1LjYyNSwyMS41NjI1IFEyNS42MjUsMjEuNTYyNSAyNS42MjUsMTguNzUgTDIzLjg3NSwxOC43NSBaIE0xOS42MjUsMTkuNDM3NSBMMjQuNTYyNSwxOS40Mzc1IEwyNC41NjI1LDE3LjY4NzUgTDE5LjYyNSwxNy42ODc1IEwxOS42MjUsMTkuNDM3NSBaICIgZmlsbD0iIzAwMDAwMCIvPjx0ZXh0IGZpbGw9IiMwMDAwMDAiIGZvbnQtZmFtaWx5PSJzYW5zLXNlcmlmIiBmb250LXNpemU9IjE0IiBsZW5ndGhBZGp1c3Q9InNwYWNpbmciIHRleHRMZW5ndGg9IjEzMyIgeD0iMzYiIHk9IjI4Ljc0MjIiPkF1dG9yaXphdGlvbl9zZW5kZWQ8L3RleHQ+PGxpbmUgc3R5bGU9InN0cm9rZTojMTgxODE4O3N0cm9rZS13aWR0aDowLjU7IiB4MT0iOCIgeDI9IjE3MSIgeTE9IjM5IiB5Mj0iMzkiLz48dGV4dCBmaWxsPSIjMDAwMDAwIiBmb250LWZhbWlseT0ic2Fucy1zZXJpZiIgZm9udC1zaXplPSIxNCIgbGVuZ3RoQWRqdXN0PSJzcGFjaW5nIiB0ZXh0TGVuZ3RoPSIxMzMiIHg9IjEzIiB5PSI1Ni4yMzQ0Ij5jdXN0b21lcl9pZDogc3RyaW5nPC90ZXh0Pjx0ZXh0IGZpbGw9IiMwMDAwMDAiIGZvbnQtZmFtaWx5PSJzYW5zLXNlcmlmIiBmb250LXNpemU9IjE0IiBsZW5ndGhBZGp1c3Q9InNwYWNpbmciIHRleHRMZW5ndGg9IjExOSIgeD0iMTMiIHk9IjcxLjIxODgiPnNlbmRlZF90aW1lOiB0aW1lPC90ZXh0PjxsaW5lIHN0eWxlPSJzdHJva2U6IzE4MTgxODtzdHJva2Utd2lkdGg6MC41OyIgeDE9IjgiIHgyPSIxNzEiIHkxPSI3Ni45Njg4IiB5Mj0iNzYuOTY4OCIvPjwvZz48IS0tU1JDPVtJeXY5QjJ2TVMybWpvSV9BaDRlaW9TcEZZb3pFcEtqOUpMNmV2YjlHSTJ1akJpZEZKSXNBcHFvbktZV2tBU2hDSW1VQUdYSjRic0pjZmJlZlc0WWtNVzAwXS0tPjwvZz48L3N2Zz4=;" vertex="1" parent="WIyWlLk6GJQsqaUBKTNV-1">
            <mxGeometry x="30" y="34.20999999999999" width="186" height="98" as="geometry" />
          </mxCell>
        </UserObject>
        <mxCell id="T1-XE717wi-3wMaK3hyC-32" value="" style="endArrow=classic;html=1;rounded=0;exitX=0;exitY=0;exitDx=0;exitDy=0;entryX=1;entryY=0.5;entryDx=0;entryDy=0;" edge="1" parent="WIyWlLk6GJQsqaUBKTNV-1" source="T1-XE717wi-3wMaK3hyC-3" target="T1-XE717wi-3wMaK3hyC-31">
          <mxGeometry width="50" height="50" relative="1" as="geometry">
            <mxPoint x="323" y="288" as="sourcePoint" />
            <mxPoint x="179" y="323" as="targetPoint" />
          </mxGeometry>
        </mxCell>
      </root>
    </mxGraphModel>
  </diagram>
</mxfile>
